/* XPM */
static char *result[] = {
/* columns rows colors chars-per-pixel */
"42 42 252 2 ",
"   c #12140C",
".  c #1B370D",
"X  c #1C2714",
"o  c #1B3314",
"O  c #16280C",
"+  c #21390D",
"@  c #272B17",
"#  c #243413",
"$  c #2C3B14",
"%  c #293919",
"&  c #33381D",
"*  c #29340F",
"=  c #2A3726",
"-  c #353825",
";  c #383A38",
":  c #423D2B",
">  c #1D450E",
",  c #1D4316",
"<  c #27480C",
"1  c #2A510D",
"2  c #234414",
"3  c #2B4314",
"4  c #2C4C13",
"5  c #2C421B",
"6  c #2D4B1B",
"7  c #234719",
"8  c #324D14",
"9  c #34441C",
"0  c #334B1D",
"q  c #384916",
"w  c #2C5413",
"e  c #2C531C",
"r  c #2C5918",
"t  c #34521C",
"y  c #3B541B",
"u  c #345B1C",
"i  c #365B17",
"p  c #34520E",
"a  c #3B631C",
"s  c #3C6B1B",
"d  c #366519",
"f  c #3F751D",
"g  c #31630D",
"h  c #2C4923",
"j  c #344423",
"k  c #3C4B23",
"l  c #374B27",
"z  c #2D5425",
"x  c #3A5324",
"c  c #365A23",
"v  c #3B5C24",
"b  c #3C542A",
"n  c #375828",
"m  c #3B5B30",
"M  c #3F4938",
"N  c #356422",
"B  c #3C6424",
"V  c #3C6B23",
"C  c #3D632A",
"Z  c #3C6A2B",
"A  c #376825",
"S  c #3D7524",
"D  c #3B6734",
"F  c #465B1E",
"G  c #46441F",
"H  c #43641C",
"J  c #436B1C",
"K  c #496A1A",
"L  c #44721C",
"P  c #4B731D",
"I  c #477A1C",
"U  c #5A771D",
"Y  c #444A27",
"T  c #445423",
"R  c #455D25",
"E  c #435C2C",
"W  c #495C2B",
"Q  c #485627",
"!  c #545A2C",
"~  c #464938",
"^  c #475939",
"/  c #585936",
"(  c #504E29",
")  c #436424",
"_  c #436C23",
"`  c #4A6D25",
"'  c #4B642B",
"]  c #436C2B",
"[  c #4A6C2D",
"{  c #476427",
"}  c #56682B",
"|  c #457424",
" . c #4B7525",
".. c #457A23",
"X. c #4C7D25",
"o. c #44742B",
"O. c #4B732B",
"+. c #4B7C2C",
"@. c #467B2B",
"#. c #52742C",
"$. c #547D2D",
"%. c #537926",
"&. c #4B6D33",
"*. c #476635",
"=. c #536433",
"-. c #546D33",
";. c #566838",
":. c #447334",
">. c #4C7B3A",
",. c #4B7836",
"<. c #547434",
"1. c #53723B",
"2. c #557C3B",
"3. c #587A36",
"4. c #63673C",
"5. c #667738",
"6. c #677431",
"7. c #634E3D",
"8. c #353C47",
"9. c #3D484A",
"0. c #454D4A",
"q. c #485947",
"w. c #545947",
"e. c #4E5758",
"r. c #566648",
"t. c #4B7741",
"y. c #597848",
"u. c #586657",
"i. c #5C7656",
"p. c #4D644D",
"a. c #657747",
"s. c #647758",
"d. c #6D7049",
"f. c #4E5A64",
"g. c #576363",
"h. c #586E6C",
"j. c #6B7867",
"k. c #677678",
"l. c #6A6F6E",
"z. c #4B881D",
"x. c #55871C",
"c. c #599C18",
"v. c #4C8225",
"b. c #4D822C",
"n. c #4B8729",
"m. c #538425",
"M. c #54832A",
"N. c #538B2C",
"B. c #5B8B2C",
"V. c #578728",
"C. c #5B942B",
"Z. c #599628",
"A. c #4D8437",
"S. c #548333",
"D. c #5A8433",
"F. c #558A33",
"G. c #5B8B34",
"H. c #54833C",
"J. c #568D3C",
"K. c #5B8B3B",
"L. c #5B833E",
"P. c #5C9234",
"I. c #5E943C",
"U. c #599738",
"Y. c #63892B",
"T. c #62942C",
"R. c #619A2B",
"E. c #649826",
"W. c #638B3D",
"Q. c #668837",
"!. c #639434",
"~. c #649C33",
"^. c #64933A",
"/. c #659C3D",
"(. c #6B9B3C",
"). c #6A9737",
"_. c #729937",
"`. c #749C2F",
"'. c #5FA639",
"]. c #6AA72A",
"[. c #6EAA32",
"{. c #68A539",
"}. c #75A939",
"|. c #6EB53C",
" X c #79B738",
".X c #74AF29",
"XX c #7BC435",
"oX c #7ECF29",
"OX c #5A8745",
"+X c #5C9645",
"@X c #5D8452",
"#X c #5F9353",
"$X c #688745",
"%X c #748C48",
"&X c #639343",
"*X c #6B9343",
"=X c #63954C",
"-X c #699A47",
";X c #759A48",
":X c #6A8A5B",
">X c #738C5B",
",X c #689A57",
"<X c #759958",
"1X c #5DA144",
"2X c #6CAB41",
"3X c #6AA344",
"4X c #71AB4C",
"5X c #75A747",
"6X c #6BB347",
"7X c #76B24A",
"8X c #78B645",
"9X c #6DA456",
"0X c #7AA957",
"qX c #7CB955",
"wX c #748B63",
"eX c #779A66",
"rX c #788878",
"tX c #68886C",
"yX c #78AA66",
"uX c #7CB266",
"iX c #6BA263",
"pX c #7BC44D",
"aX c #7DC356",
"sX c #82BB32",
"dX c #86C838",
"fX c #8ACF35",
"gX c #85B947",
"hX c #85B957",
"jX c #88B054",
"kX c #829171",
"lX c #86B864",
"zX c #8FAC73",
"xX c #95AF65",
"cX c #84C445",
"vX c #88C75A",
"bX c #92CB54",
"nX c #95D859",
"mX c #92D647",
"MX c #99E551",
"NX c #8BC566",
"BX c #97C978",
"VX c #96DA6A",
"CX c #A8DF70",
"ZX c #747C86",
"AX c #7F8F82",
"SX c #8B978B",
"DX c #94B584",
"FX c #93AB8F",
"GX c #99A6A8",
"HX c #A4B1AD",
"JX c #BDC7CA",
"KX c #9FDC97",
/* pixels */
"].XX.X].gXbX`.mX.XfXnXlXqX7X8XvXjXDX^.vX| 5XqXBXpX6X-XhXhXVX{.vXqXP.4Xr.0X!.Y.<X<X1.",
"$ ) Z.3 jXE.`.`.U jX=.O.5XlX3XJ.qXhXvXv.|.2. X5X| KXzXZ DXNX*.hX+.N.4X' E.T.^.I V.<X",
"V.D. XM.~ F H a.K } SXB X.2.a _ $.2X] % ,XZ e +XhX=X*.FXy.D 0X+.B 4Xn b 5 j ' & / zX",
") 3 4 D.W Q.H K %.P >X!.@.^.I 3Xa 2.$.9X7 n <.=XlXz l :.B S M.J...R.s  .v i L 0 & wX",
"&.b # +.5.W -.9 Q ! s.D.Z.~.|.{.z 3.x j &X2Xc & . tXi.y.bXC +.^.pXL ^.{ $.{ J q 4.<X",
"5 $ X $ b 9 ( ! q T u.Y.E.Z.g U a.Q.0.( @ =.' $XE $ wX@X4 x -.W i S.( W j ^ % = X y.",
". t d SXrXu.u.s.p.zXk.ZXk.k.%XkXk.j.kX1.;Xy.-XJX@X-XXX;.kX&X,X^ q.q.0.h.~ 3.9.1.k 0.",
"N m.U.F.].].dX8X[.}.;X;XkXlXsXjXcXCXNX{.-XU.N.mXXXmX6X{.MX# w.3X}.{.H.<./.n.}.{.R.$.",
"#Xt.:.7Xc.d i |.C.#.]._.bXsXY.}  X7Xd o.A.qX:.n. .^.C.C.R.^ 2.BXlXnXBXjX!.B.M.-XC.;X",
"b *.z s G..X~.XXR L ^ } } 5.4.%Xx.U.J.1X@.U.vXN 2.e [ ,.. $.0X#XDXF.+X>XU.{.N.N.B b ",
"[ +Xc z  .@ $ m.H y DXH 8 { 5.P P A.S.Z U.r &XB.+.p V S H.y.:.>.S.Z +X;.lX:.| !.^.v ",
"m.+XK.z v 5X) G.V.# >X4.} R 5.F ' m.~.F.d M.[ A.|.O.) B.v y.-Xz c F.y.y.] | &X!.{.y ",
"{.7 5 1.| o.D.] ) _ r.! F F { 6.6.x.[.|.R.S.R ^.Y.%.I.2.w tXL.uX5X0X8 #.D.$Xw | -.{ ",
"!.t.F 5.l q X % # 9 s./ { Q `./ ;.!..X).R.Q.$X(.3.;X5Xb !.q.;X$ 2.8Xt.r.!.! $ R Q.=.",
"*.+Xa ;.;.  ^ l # j j.Y & E } R ! }.x.Y.~.9Xa.&.1.-.n ' #.j.5 *.o b Y l.<.} { Y.#.a.",
"J.DX&X:XI.0X$XOX$XG.:XSXf.l.i.g.kXGXeXrXwXj.ZXDX8X8X7XnXbX,X3X].n.v._.h.f.r.$X;X-Xg.",
"i.iXyXyX8X|.gXvX{.n.C.2XgX,XdX8XcX<XbXlX5Xj.l.aXVXqX3X4XU.B cX@.u {.{.x gX~.{.[.a ).",
"y.OX#XaXN.Z /.^.S.b.S XXR. .F.) ).E.%XY.R `._.}.S w > /.^.| 5Xd [ &.e OX,.,.9X=XB X.",
"7 =Xz z {.OX3Xu B o.X.m....XR.| Q.( / / 7.$XW.J.N =XF.e +.@.6 z Z U.(.F.$.zXS.6 $XP ",
", OXv S v.e O.) F.D . $.#.v.O.a #.;.6.! } Q _.f qXb.|.2XU.F.Z o.N.+.m ^ y.K.=X$Xs %.",
"eX2.*.< b.G.x.G.M.F.{.+.| M.G.dX^.Y 4.Q ( - / m.R.%.z.5XS.0 v O 8 z 3Xr.V.wXa.W.:.K ",
"h 6 i v.V.m.K z.{.O.I  .2 b ^.c [ Q ( d.4.X 5.U dX!.m.E.I.>.L.D 5X5 2.:X4XD.C.h 2.y ",
"3.> B Q.3.R.}.#.!.B }.G.m % [ @.5 ! R 5.4.p %.#.R.}.]..X`.V P.B ) &X%.SX<.y B M.a.3.",
"$XE 2.[ _.).%.3.T.3.m.@.4 0 :.3 - 4.3 d./ q } ' E.}.}.Q.3.w -X8 * & @ GX).jX9 O.b <.",
"; % 9.HXHXqX*.4X{.:Xo.2.^ f.^ r.s.kXe.e.gXe.SXGX^ q.u.s.zX;X5 ~ = Y b h.j =X{ x ` 5X",
"P.|.D.{.2XvXBXqX4XA i.4Xm.!.I.U.s ~.cXbX8X^.].^.5XjXfXbXs.7Xb.6X8XZ.pXt }.| I -XP.J.",
"a s f m.yX2.C ,X=XyXj A f F.S &.F.q W.i 8 ~.F x.sX.XY.Z.Y.}.A _ @.I.G.q.3X2 a 7X3X7X",
"O.| 8 3 x C uXo =.. z D +XZ >.N V (.(.m ` V.+.J ;.d.Q { d.(.4XK.&XyX8 SX] 5XK.5 r J ",
"w r +.1 2 +Xm OXOX+.h y., A.o.H.z 9 [ v  .^.*X| ) W F K 5.;.N 2 ..L d SXqXD.5X% A H.",
"w 4 2 J > e ,Xz { yX:.O.w |.C :.1 3.& & :.8 1._.F Q 8 3 ( u S.C.R.g I k.d ^.2 7XK.v ",
"i ) & w 1 *.,.M.l ^.c F.D.4Xd s d % v.I.3 n ^ y %X6.Y E V.O.Z.{.E.N.R FX_ v.u u 2.a ",
"1 T < R 8 t OX$XW.3 x R.+X+Xa |.] @ = O.x j b y Q Y Y 3 d.{ Z.n. .(.B.HXC F W.] 2 F.",
"} & y a t 5 OX- X 5.s.B.T &X| 4 [ - u ;.j b ~ 8 G Y k ~ / s.#.L M._.Y.GX-X8 % R 5 . ",
": w.~ eXkXu.M 8.0.kX{ tX:X+X$Xq.j.tXB b E E GXrX~ *.u.r.s.f.' ^ $X9.; k.%XE W ; Q eX",
"t.I.v N.- 8 r.d.= ] 4 N yXCXS r.9X'.A.n.v.{.].+.mX].oXdXMXY.J 9X-.^ r.o.z.Z.+XZ.n.Z.",
"4X$.g G.x.d ' _ J P o.iXiXNX,X1X+XU.A.1X+.N b.Z.] ) 2 +.!.;XQ.m.`.fX}.*X@.,.D H.d B ",
"C F.=XH | ` =.*.) 0 *.D A.@.6X>.&.N =XD V d z.F.{.S v.. P.6 ( %XY.Q %.xX1.*.=Xc z a ",
"7 z ,...4 T + W o =.i.Z m iXD D b.t.e O D V B A {.1 i 3 ) ) ;.K BX! W } | g +.o.a N.",
"n u < A e + 3 # + / 8.b = ] X X B u r =XN b.].U.$.% C.L 3 E Y 0 d.F } %XS._ > e z , ",
"D 2.r i H $ + R @ Y 8.O &XOX,X@X) F.-X_ :., R.}.m.X./.].W.q.Q & 4.( q %XX.a w z c +.",
". &XP a H . G - % = f.X h y.t.>.# F.d G.u S._ <.w O O j ` wXQ -.- / - a. . .i | L :.",
"  J $.L % 9 : @ o ; 8.7 X v t.  b f A s 9XS X./.cX^.4 7 k u.* k k @ X 3.F.M.E.G...d "
};
