/* XPM */
static char *result[] = {
/* columns rows colors chars-per-pixel */
"42 42 125 2 ",
"   c #010101",
".  c #0B0A04",
"X  c #1E1E06",
"o  c #1B1F14",
"O  c #181D18",
"+  c #1E2217",
"@  c #1D231E",
"#  c #23260C",
"$  c #29290B",
"%  c #353407",
"&  c #34350B",
"*  c #262A14",
"=  c #2C2F10",
"-  c #21271D",
";  c #2E3214",
":  c #2B311D",
">  c #303312",
",  c #3B3D11",
"<  c #323619",
"1  c #393D18",
"2  c #1D2321",
"3  c #1D2A33",
"4  c #262E25",
"5  c #222C2C",
"6  c #2F3620",
"7  c #27312A",
"8  c #2B372E",
"9  c #212D33",
"0  c #283538",
"q  c #3F4216",
"w  c #3A4635",
"e  c #33423D",
"r  c #384638",
"t  c #4E4E07",
"y  c #484708",
"u  c #45480F",
"i  c #4B4C0A",
"p  c #55550A",
"a  c #5D5D09",
"s  c #4B4E13",
"d  c #5A5E16",
"f  c #666509",
"g  c #6B6B09",
"h  c #706F07",
"j  c #797906",
"k  c #737309",
"l  c #7B7A09",
"z  c #263741",
"x  c #2B3C44",
"c  c #2E4044",
"v  c #2D414E",
"b  c #334443",
"n  c #364B4E",
"m  c #2F4654",
"M  c #314755",
"N  c #304857",
"B  c #334A58",
"V  c #39515F",
"C  c #385263",
"Z  c #3B5669",
"A  c #3C5A6C",
"S  c #405F73",
"D  c #426276",
"F  c #45667B",
"G  c #47687E",
"H  c #8D8C06",
"J  c #848308",
"K  c #908F09",
"L  c #9D9C04",
"P  c #929109",
"I  c #989708",
"U  c #9A9909",
"Y  c #A3A206",
"T  c #AEAE07",
"R  c #A5A409",
"E  c #ADAD08",
"W  c #B1AF08",
"Q  c #B3B206",
"!  c #B8B707",
"~  c #BFBD04",
"^  c #B2B108",
"/  c #B8B708",
"(  c #BFBE09",
")  c #C4C306",
"_  c #C8C607",
"`  c #CAC906",
"'  c #CAC808",
"]  c #D0CF07",
"[  c #D5D407",
"{  c #D8D706",
"}  c #DCDB05",
"|  c #DDDC09",
" . c #E0DF05",
".. c #E1DF08",
"X. c #E4E304",
"o. c #EDEC03",
"O. c #F0EF00",
"+. c #F0F001",
"@. c #496D84",
"#. c #4E748C",
"$. c #507790",
"%. c #527A94",
"&. c #57809B",
"*. c #5985A1",
"=. c #5E8DAB",
"-. c #608EAD",
";. c #6395B4",
":. c #679ABB",
">. c #699DBE",
",. c #6AA0C1",
"<. c #6FA6C9",
"1. c #71AACD",
"2. c #73ADD2",
"3. c #76B2D7",
"4. c #76B3D8",
"5. c #79B5DB",
"6. c #7BB9DF",
"7. c #7DBCE4",
"8. c #7FBFE8",
"9. c #7FC0EA",
"0. c #81C3EC",
"q. c #83C7F1",
"w. c #85CAF5",
"e. c #87CEFA",
"r. c #88CEFA",
/* pixels */
"e.e.e.e.e.e.e.e.e.e.e.e.e.e.r.r.r.e.r.r.r.r.7.q.r.r.e.e.e.e.e.e.e.e.e.e.e.e.e.e.e.e.",
"e.e.e.e.e.e.e.e.e.e.e.e.e.e.0.*.A 9 - # $ * 2 z F ,.r.r.e.e.e.e.e.e.e.e.e.e.e.e.e.e.",
"e.e.e.e.e.e.e.e.e.e.r.r.7.F o t P | +.+.O.O.O.[ Y a - G 7.e.e.e.e.e.e.e.e.e.e.e.e.e.",
"e.e.e.e.e.e.e.e.e.e.r.@.O P { o.O.O.O.+.O.O.O.O.o.o._ g 8 -.w.e.e.e.e.e.e.e.e.e.e.e.",
"e.e.e.e.e.e.e.e.r.5.v a { O.O.O.O.O.O.O.O.O.O.O.O.O.O.O.{ i N 7.e.e.e.e.e.e.e.e.e.e.",
"e.e.e.e.e.e.e.e.3.+ R O.+.O.O.O.O.O.O.O.O.O.O.O.O.O.O.O.+.o.H x 7.r.e.e.e.e.e.e.e.e.",
"e.e.e.e.e.e.e.>.: / O.O.O.O.O.O.o.+.O.O.O.O.O.O.O.O.O.O.O.O.O.T @ 2.e.e.e.e.e.e.e.e.",
"e.e.e.e.e.e.7.7 / +.O.O.O.O.O.O.+.+.O.O.O.O.O.O.O.O.O.O.O.O.O.O.R b 8.e.e.e.e.e.e.e.",
"e.e.e.e.e.0.0 Q +.O.O.O.O.O.O.O.O.O.o.O.O.O.O.O.O.O.O.O.O.O.O.O.O.I N w.r.r.e.e.e.e.",
"e.e.e.e.r.G k o.+.+.O.O.O.O.O.O.O.O.+.O.O.O.O.O.O.O.O.O.O.O.O.O.O.o.a $.e.r.e.e.e.e.",
"e.e.e.e.5., o.O.O.O.O.O.O.O.O.O.O.O.O.O.O.O.O.O.O.O.O.O.O.O.O.O.O.O.} = 0.e.e.e.e.e.",
"e.e.e.r.x W o.O.O.O.O.O.O.O.O.O.O.O.O.O.O.O.O.O.O.O.O.O.O.O.O.O.O.O.O.T A r.e.e.e.e.",
"e.e.r.:.i +.O.O.O.O.O.O.O.O.O.O.O.O.O.O.O.O.O.O.O.O.O.O.O.O.O.O.O.O.O.o.$ 5.e.e.e.e.",
"e.e.r.C _ O.O.O.O.O.O.O.O.O.O.O.O.O.O.O.O.O.O.O.O.O.O.O.O.O.O.O.O.O.O.O.R C r.e.e.e.",
"e.e.7.< o.+.O.O.O.O.O.O.O.O.O.O.O.O.O.O.O.O.O.O.O.O.O.O.O.O.O.O.O.O.O.O.o.* w.e.e.e.",
"e.e.$.l +.+.O.O.O.O.O.O.O.O.O.O.O.O.O.O.O.O.O.O.O.O.O.O.O.O.O.O.O.O.O.O.o.j ;.e.e.e.",
"e.r.c _ O.O.O.O.O.O.O.O.O.O.O.O.O.O.O.O.O.O.O.O.O.O.O.O.O.O.O.O.O.O.O.O.O.' S e.e.e.",
"e.r.1 o.O.O.O.O.O.O.O.O.O.O.O.O.O.O.O.O.O.O.O.O.O.O.O.O.O.O.O.O.O.O.O.O.O.O.w e.e.e.",
"e.5.f O.O.O.O.O.O.O.O.O.O.O.O.O.O.O.O.O.O.O.O.O.O.O.O.O.O.O.O.O.O.O.O.O.O.O.d 5.e.e.",
"r.;.H O.O.O.O.O.O.O.O.O.O.O.O.O.O.O.O.O.O.O.O.O.O.O.O.O.O.O.O.O.O.O.O.O.O.O.j :.e.e.",
"e.#.L O.O.O.O.O.O.O.O.O.O.O.O.O.O.O.O.O.O.O.O.O.O.O.+.o.O.+.O.O.O.O.O.O.O.O.R %.e.e.",
"e.Z Q O.O.O.O.O.O.O.O.O.O.O.O.O.O.O.O.O.O.O.O.O.O.O.O.[ ' o.O.O.O.O.O.O.O.O.! F e.e.",
"e.m ) O.O.O.O.O.O.O.O.O.O.O.O.O.O.O.O.O.O.o.O.O.O.O._ X . l O.O.O.O.O.O.O.O.~ A e.e.",
"e.v ` O.O.O.O.O.O.O.O.O.O.O.O.O.O.O.O.X.l o.O.O.O.O.p       { O.O.O.O.O.O.O.) Z e.e.",
"e.v ` +.O.O.O.O.O.O.O.O.O.O.O.O.O.O. .u v h o.O.O.O.y       ] O.O.O.O.O.O.O. .Z e.e.",
"e.N ) +.O.O.O.O.O.O.O.O.O.O.O.O.O.O.f #.w.z I O.O.O.U     % o.O.O.O.O.O.O.O.] D e.e.",
"e.Z ^ +.O.O.O.O.O.O.O.O.O.O.O.O.o.i G e.r.0.9 ) O.+.+.K k } O.O.O.O.O.O.O.O./ #.e.e.",
"e.$.P o.O.O.O.O.O.O.O.O.O.O.O.o.l A w.e.r.r.5.> { +.+.O.O.O.O.O.O.O.O.O.O.O.I -.e.e.",
"r.;.f O.O.O.O.O.O.O.O.O.O.O.O.l B r.r.e.e.e.e.*.u X.O.O.O.O.O.O.O.O.O.O.+.+.h :.e.e.",
"r.8.& +.O.O.O.O.O.O.O.O.O.O.P N w.r.e.e.e.e.e.w.A J O.O.O.O.O.O.O.O.O.O.+.+.% 7.e.e.",
"r.r.9 X.O.O.O.O.O.O.O.O.O.U 3 w.e.e.e.e.e.e.e.e.r.v I O.O.O.O.O.O.O.O.O.+.X.3 r.e.e.",
"r.r.D ) O.O.O.O.O.O.O.O.W b 8.r.e.e.e.e.e.e.e.e.e.4.4 _ O.O.O.O.O.O.O.O.O.Y D e.e.e.",
"e.e.1.g O.O.O.O.O.O.O.^ 4 4.e.e.e.e.e.e.e.e.e.e.e.e.2., X.o.O.O.O.O.O.O.+.g 1.e.e.e.",
"e.e.r.w  .O.O.O.O.O.) 7 5.e.e.e.e.e.e.e.e.e.e.e.e.e.e.$.p o.O.O.O.O.O.O.} w r.e.e.e.",
"e.e.e.@.J O.O.+.O.) : <.e.e.e.e.e.e.e.e.e.e.e.e.e.e.e.e.A l +.+.O.O.O.O.l #.e.e.e.e.",
"e.e.e.5.< } O.o.{ q <.e.e.e.e.e.e.e.e.e.e.e.e.e.e.e.e.e.0.n W o.O.O.O.} 6 7.e.e.e.e.",
"e.e.e.e.#.k +.[ ; ;.e.e.e.e.e.e.e.e.e.e.e.e.e.e.e.e.e.e.e.8.o [ O.O.O.J %.r.e.e.e.e.",
"e.e.e.e.0.e ( s *.e.e.e.e.e.e.e.e.e.e.e.e.e.e.e.e.e.e.e.e.r.,., X.O.' 5 w.r.e.e.e.e.",
"e.e.e.e.e.:.. &.e.e.e.e.e.e.e.e.e.e.e.e.e.e.e.e.e.e.e.e.e.e.e.%.f X.& <.e.e.e.e.e.e.",
"e.e.e.e.e.e.<.r.e.e.e.e.e.e.e.e.e.e.e.e.e.e.e.e.e.e.e.e.e.e.e.e.V & $.r.r.e.e.e.e.e.",
"e.e.e.e.e.e.e.e.e.e.e.e.e.e.e.e.e.e.e.e.e.e.e.e.e.e.e.e.e.e.e.e.8.F q.e.e.e.e.e.e.e.",
"e.e.e.e.e.e.e.e.e.e.e.e.e.e.e.e.e.e.e.e.e.e.e.e.e.e.e.e.e.e.e.e.e.e.e.e.e.e.e.e.e.e."
};
