/* XPM */
static char *result[] = {
/* columns rows colors chars-per-pixel */
"42 42 185 2 ",
"   c #020202",
".  c #090504",
"X  c #090806",
"o  c #0D0D0C",
"O  c #040508",
"+  c #110E0C",
"@  c #191918",
"#  c #29221C",
"$  c #1F2021",
"%  c #242423",
"&  c #26292A",
"*  c #2C2B29",
"=  c #282725",
"-  c #373B3C",
";  c #463F3A",
":  c #484746",
">  c #504942",
",  c #585551",
"<  c #645A4D",
"1  c #656158",
"2  c #756C55",
"3  c #7B6956",
"4  c #776C59",
"5  c #796A59",
"6  c #786656",
"7  c #786C4E",
"8  c #4B5960",
"9  c #666560",
"0  c #76756B",
"q  c #787469",
"w  c #D6131C",
"e  c #E50312",
"r  c #E90311",
"t  c #E30918",
"y  c #E2080D",
"u  c #D41220",
"i  c #C91823",
"p  c #D42732",
"a  c #C23C51",
"s  c #887840",
"d  c #B05368",
"f  c #B36D7A",
"g  c #C74354",
"h  c #E35040",
"j  c #C05666",
"k  c #7B8C3B",
"l  c #79944D",
"z  c #83983E",
"x  c #AC9926",
"c  c #A7983E",
"v  c #88AE2F",
"b  c #8EBC2B",
"n  c #90B42F",
"m  c #97BD2C",
"M  c #8DAB36",
"N  c #87A935",
"B  c #93B630",
"V  c #B7AB28",
"C  c #ADB13B",
"Z  c #B9B032",
"A  c #ADA73A",
"S  c #CABE25",
"D  c #C3B431",
"F  c #8FC41E",
"G  c #92C21C",
"H  c #8EC324",
"J  c #91C224",
"K  c #D9CE1D",
"L  c #E5DA1B",
"P  c #FCEF0C",
"I  c #FDF106",
"U  c #FBF10B",
"Y  c #FAED17",
"T  c #FAF012",
"R  c #D5CC25",
"E  c #D8CE20",
"W  c #C8C332",
"Q  c #E2D824",
"!  c #F4E921",
"~  c #EDEA3D",
"^  c #828942",
"/  c #9E8A43",
"(  c #919446",
")  c #A69845",
"_  c #AAA446",
"`  c #B2AE4C",
"'  c #A4AB5F",
"]  c #928F63",
"[  c #85827E",
"{  c #958D7D",
"}  c #849878",
"|  c #AF9566",
" . c #A89F7E",
".. c #B9A069",
"X. c #C18768",
"o. c #C8A975",
"O. c #D2AD73",
"+. c #DEA570",
"@. c #D7B370",
"#. c #D9B96D",
"$. c #E4B87A",
"%. c #CECC47",
"&. c #D1C743",
"*. c #CFC750",
"=. c #DBD642",
"-. c #5D7381",
";. c #667882",
":. c #A77C9E",
">. c #B17A97",
",. c #7B8988",
"<. c #6A889B",
"1. c #798E93",
"2. c #7E9696",
"3. c #7EA29B",
"4. c #7190A3",
"5. c #769BB2",
"6. c #7EA1A2",
"7. c #7DA6BE",
"8. c #998E81",
"9. c #819C8A",
"0. c #959B8C",
"q. c #88999C",
"w. c #A49985",
"e. c #8DA689",
"r. c #8CA596",
"t. c #97A599",
"y. c #A8A997",
"u. c #B3B097",
"i. c #AE80A4",
"p. c #AD99B6",
"a. c #86A2AE",
"s. c #84ACAF",
"d. c #8DAFAA",
"f. c #89A4AA",
"g. c #92AAAB",
"h. c #87AAB5",
"j. c #89B4BB",
"k. c #ABAAA7",
"l. c #B2ADA8",
"z. c #B4B2AB",
"x. c #BCB9B4",
"c. c #C2849D",
"v. c #C1B69D",
"b. c #C2BFBA",
"n. c #AB9CC2",
"m. c #81AEC8",
"M. c #85B3CD",
"N. c #89B8CA",
"B. c #91B6C0",
"V. c #8ABBD7",
"C. c #AEA8C9",
"Z. c #99BAE2",
"A. c #8BC0DD",
"S. c #8CC4E6",
"D. c #8ECAEE",
"F. c #8CC6E9",
"G. c #98C3EA",
"H. c #8CCDF5",
"J. c #87CEFA",
"K. c #89CEFA",
"L. c #91CCF4",
"P. c #95C7F0",
"I. c #85D1F7",
"U. c #85D0FA",
"Y. c #95D2F7",
"T. c #9CD1F1",
"R. c #ACD6EE",
"E. c #A6D6EE",
"W. c #B4D9EB",
"Q. c #BADBEA",
"!. c #A4D5F1",
"~. c #CECCC6",
"^. c #C9C6C1",
"/. c #D0D1CE",
"(. c #EFE7D6",
"). c #EDE8D6",
"_. c #EAE6DA",
"`. c #F1E8D4",
"'. c #C5DEE6",
"]. c #CADFE4",
"[. c #C5DEE9",
"{. c #CCE0E4",
"}. c #DFF2FA",
"|. c #E6E7E3",
" X c #EEFAFE",
/* pixels */
"J.J.J.J.J.J.J.J.J.H.J.J.J.J.J.J.J.J.J.J.J.J.J.J.J.J.J.J.J.J.J.J.J.J.J.J.J.J.J.J.J.J.",
"J.J.J.J.J.J.J.J.J.J.J.J.J.J.J.J.J.J.J.J.J.J.J.J.J.J.J.J.J.J.J.J.J.J.J.J.J.J.J.J.J.J.",
"J.J.J.J.J.J.J.J.J.J.J.J.J.J.J.J.J.J.J.J.J.J.J.J.J.J.J.J.J.J.J.J.J.J.J.J.J.J.J.J.J.J.",
"J.J.J.J.J.J.J.J.J.J.J.J.J.J.J.J.J.J.J.J.J.J.J.J.J.J.J.J.J.J.J.J.J.J.J.J.J.J.J.J.J.J.",
"J.J.J.J.J.J.J.J.J.J.J.J.J.J.J.J.J.J.J.J.J.J.J.J.J.J.J.J.J.J.J.J.J.J.J.J.J.J.J.J.J.J.",
"J.K.J.J.J.J.J.J.J.J.J.J.J.J.J.J.J.J.J.J.J.J.J.J.J.J.J.J.J.J.J.J.J.J.J.J.J.J.J.J.J.J.",
"J.J.J.J.J.J.J.J.J.J.J.J.J.J.J.K.J.J.J.J.J.J.J.J.J.J.J.J.J.K.I.J.J.J.J.J.J.J.J.J.J.J.",
"J.J.J.J.J.J.J.J.J.J.J.J.J.J.J.J.J.J.J.J.J.J.H.I.J.J.J.J.J.K.J.J.K.K.J.J.J.J.J.J.J.J.",
"J.J.J.J.J.J.J.J.J.J.J.J.J.J.J.J.J.K.K.K.U.K.J.J.J.H.J.K.Z.L.>.n.K.P.U.K.K.J.J.J.J.J.",
"J.J.J.J.J.J.J.J.J.J.K.K.J.J.J.J.J.U.U.K.K.K.H.J.J.J.J.L.G.p.p w g K.K.K.J.K.J.J.J.J.",
"J.J.J.J.J.J.J.J.J.J.K.J.J.J.J.J.J.J.K.H.t...$.@.y.j.H.L.u e r r t g Z.K.J.J.J.J.J.J.",
"J.J.J.J.J.J.J.J.J.J.J.J.J.J.J.J.J.J.H.0. .A.K.K.q.o.w.j t e r r r w a S.J.J.J.J.J.J.",
"J.J.J.J.J.J.J.J.J.J.J.J.J.J.J.J.J.J.U.O.L.U.J.H.K.K.o.f p r e r e i d H.J.J.J.J.J.J.",
"J.J.J.J.J.J.I.J.K.J.J.J.J.J.J.J.J.K.K.O.H.J.K.J.K.K.h.X.n.r r e y D.P.D.J.J.J.J.J.J.",
"J.J.J.J.J.J.J.J.J.J.J.J.J.J.J.J.U.K.J.o.L.I.J.J.K.K.K.$.C.p c.h i.i.Z.U.J.J.J.J.J.J.",
"J.J.K.r.W *.%.e.H.J.J.J.J.J.K.D.8 = > | { ; & m.K.U.U.f.0.Z.K.+.p.V.h.f.h.J.K.J.J.J.",
"J.I.A.=.P R P U ) J.J.J.J.U.<.O     O .         % 4.K.K.@.y.y.O.j.U U V I f.H.J.J.J.",
"J.J.] &.V Q x U Z J.J.J.J.0 O                       ;.K.K.h.a.K.A L K T T Q ' J.U.K.",
"H.J.~ A S P P Y r.J.J.J.@ O                         O V.K.K.K.K.e.U T K x x E J.K.J.",
"J.J.d.c K P ) r.H.J.J.V.O o m.O               O k.|.  @ K.K.K.K.H.! P P L D ) U.J.J.",
"J.J.J.j.C ` 5 4 1.I.J.0   * U.<.  O           -.L. X    K.I.I.J.K.s / T ! _ d.J.U.K.",
"J.J.K.K.K.K.S.5 3 3 4.o   + J.K.4 < O     @ 5 J.J.R.    S.J.J.a.5 3 q H.F.J.J.I.J.K.",
"J.J.K.K.J.J.K.U.L.0 3       7.J.1.z.1   > _.8. X/.*     1 5 3 3 0 K.J.J.J.J.J.J.J.J.",
"J.J.K.K.J.J.J.J.K.J.J.        X + O         o X       . 1 0 q.H.J.J.J.J.J.J.J.J.J.J.",
"J.J.J.J.J.J.J.J.J.J.J.                      O           M.J.J.J.U.K.K.J.J.J.J.J.J.J.",
"J.J.J.J.J.J.J.J.J.J.U.:       O , :.x.z.y.l.[ @         J.J.J.K.6.} e.H.J.J.J.J.J.J.",
"J.J.J.J.J.J.J.J.J.J.J.S.O   * z.x.^.~.z.z.^.b.z.l.$   # ,.M.A.v G H H M J.J.J.J.J.J.",
"J.J.J.K.J.J.J.J.J.J.J.K.    X X . . . X . .   X . .   < 6 4 7 n H H H n J.J.J.J.J.J.",
"J.J.J.J.J.J.J.J.J.J.J.K.N.$ O                       & H.a.7 4 4 F F m A.J.J.J.J.J.J.",
"J.J.J.J.J.J.J.J.J.J.J.J.K.J.%                     & H.J.J.n J H G 2.D.I.J.J.J.J.J.J.",
"J.J.J.J.J.J.J.J.J.J.K.L.K.J.5 9 O             - H.J.J.J.U.N H G 3.J.J.J.J.J.J.J.J.J.",
"J.J.J.J.J.J.J.J.J.K.K.K.J.V.6 D.J.K.M.5.7.M.J.J.J.J.J.J.U.S.e.m.K.J.J.J.J.J.J.J.K.J.",
"J.J.J.J.J.J.J.J.J.J.s.M J z 6 V.J.J.J.J.J.K.J.H.K.J.J.J.J.J.J.J.J.J.J.J.J.J.J.J.J.J.",
"J.J.J.J.J.J.J.H.J.D.M J b k 6 l K.J.J.J.J.J.J.J.K.J.J.J.J.J.J.J.J.J.J.J.J.J.J.J.J.J.",
"J.J.J.J.J.J.J.J.J.z J J H F m H J.K.J.K.J.J.J.J.J.J.J.J.U.J.K.K.J.K.J.J.J.J.J.J.J.J.",
"J.J.J.J.J.J.J.I.K.B G J J n z u.Q.[.[.[.].{.{.].'.{.[.Q.W.R.!.T.H.K.J.K.J.J.J.J.J.J.",
"J.J.J.J.J.J.J.J.J.} ( v.`.`.(.`.(.(.(.(.(.(.(.(._.(.(.(.(.)._.`.(.`.`.|.J.J.J.J.J.J.",
"J.J.J.J.J.J.J.J.J.J.J.J.H.Y.!.R.W.W.Q.Q.Q.Q.Q.Q.Q.Q.W.W.E.T.T.H.H.J.J.K.J.J.J.J.J.J.",
"J.H.J.J.J.J.J.J.J.J.K.J.J.J.J.K.J.J.K.J.J.J.J.J.J.J.J.J.K.J.J.K.K.U.K.J.J.J.J.J.J.J.",
"J.J.J.J.J.J.J.J.J.J.J.J.J.J.J.J.J.J.J.J.J.J.J.J.J.J.J.J.U.U.J.J.K.J.J.J.J.J.J.J.J.J.",
"J.J.J.J.J.J.J.J.J.J.J.J.J.J.J.J.J.J.J.J.J.J.J.J.J.J.J.J.J.J.J.J.J.J.J.J.J.J.J.J.J.J.",
"J.J.J.J.J.J.J.J.J.J.J.J.J.J.J.J.J.J.J.J.J.J.J.J.J.J.J.J.J.J.J.J.J.J.J.J.J.J.J.J.J.J."
};
