/* XPM */
static char *result[] = {
/* columns rows colors chars-per-pixel */
"42 42 188 2 ",
"   c #020203",
".  c #080505",
"X  c #020509",
"o  c #0D0C0B",
"O  c #0A0808",
"+  c #141313",
"@  c #1C1C1B",
"#  c #191715",
"$  c #201C1B",
"%  c #1B1F20",
"&  c #212121",
"*  c #252729",
"=  c #2C2C2B",
"-  c #282928",
";  c #38322D",
":  c #2C2E31",
">  c #2D3335",
",  c #333637",
"<  c #372F29",
"1  c #42464D",
"2  c #484E52",
"3  c #445058",
"4  c #61584C",
"5  c #625E57",
"6  c #766A56",
"7  c #7A6A54",
"8  c #756C5C",
"9  c #796B5A",
"0  c #7B6659",
"q  c #79694D",
"w  c #4B5B65",
"e  c #53646C",
"r  c #566971",
"t  c #786E62",
"y  c #6E726B",
"u  c #747166",
"i  c #75746A",
"p  c #797568",
"a  c #797574",
"s  c #D90D1A",
"d  c #E60112",
"f  c #E80213",
"g  c #E20919",
"h  c #CD1C28",
"j  c #DB1726",
"k  c #CA1A30",
"l  c #D52738",
"z  c #C13E43",
"x  c #C83F56",
"c  c #BB506D",
"v  c #807267",
"b  c #C8495B",
"n  c #C65A71",
"m  c #CC6075",
"M  c #7E9745",
"N  c #7A8E5C",
"B  c #799367",
"V  c #A79E1F",
"C  c #988B38",
"Z  c #AD9C25",
"A  c #A79826",
"S  c #A19838",
"D  c #8FBC2D",
"F  c #91BE28",
"G  c #8BA838",
"H  c #B3A229",
"J  c #B7AD2E",
"K  c #BAB022",
"L  c #ACA032",
"P  c #B4A638",
"I  c #B9B13C",
"U  c #CDBC17",
"Y  c #C5B82C",
"T  c #C4B726",
"R  c #8DC51B",
"E  c #91C41C",
"W  c #8EC324",
"Q  c #91C322",
"!  c #93C228",
"~  c #90C130",
"^  c #CEC01F",
"/  c #DDD31E",
"(  c #D7CC19",
")  c #FBEF0F",
"_  c #FDF106",
"`  c #FAF10B",
"'  c #FBED14",
"]  c #F5EA1D",
"[  c #F5E91A",
"{  c #FBF013",
"}  c #D9CE2F",
"|  c #D0CA25",
" . c #DAD426",
".. c #CDC334",
"X. c #E6DB2C",
"o. c #E4D927",
"O. c #EDE224",
"+. c #849D4D",
"@. c #869942",
"#. c #9F9E48",
"$. c #A39542",
"%. c #85A142",
"&. c #B4B952",
"*. c #B5B94A",
"=. c #808479",
"-. c #959E6A",
";. c #AE9062",
":. c #A5987F",
">. c #B88C6D",
",. c #9AA779",
"<. c #BCA570",
"1. c #A6B671",
"2. c #C8A870",
"3. c #D1AF74",
"4. c #DBBB7B",
"5. c #DFB87B",
"6. c #E0BA79",
"7. c #647C86",
"8. c #B37493",
"9. c #C27790",
"0. c #799789",
"q. c #768E9C",
"w. c #7E9B91",
"e. c #7D898A",
"r. c #7DA59E",
"t. c #7BA28A",
"y. c #799AA8",
"u. c #769DB4",
"i. c #7FA1A2",
"p. c #7FADB7",
"a. c #7FAAC3",
"s. c #829D8B",
"d. c #859F9A",
"f. c #9A9F95",
"g. c #A09C98",
"h. c #90A790",
"j. c #87A697",
"k. c #B1AE9B",
"l. c #829EA8",
"z. c #968CB0",
"x. c #9E9CBE",
"c. c #B380A0",
"v. c #AD95B6",
"b. c #A597AB",
"n. c #8DACA5",
"m. c #84A4AD",
"M. c #9AAEAC",
"N. c #85AAB4",
"B. c #85B1BA",
"V. c #B3AEA9",
"C. c #ACB1A4",
"Z. c #BEBAB5",
"A. c #979FC1",
"S. c #A19EC0",
"D. c #87ADC0",
"F. c #97A0C2",
"G. c #8BB4CC",
"H. c #8AB4C7",
"J. c #85B6D4",
"K. c #8BB7D2",
"L. c #85B9D5",
"P. c #8ABAD5",
"I. c #8ABDDC",
"U. c #9FB0D2",
"Y. c #B3A6C4",
"T. c #A9A3C2",
"R. c #99BBE7",
"E. c #8BC1DC",
"W. c #8AC3E4",
"Q. c #8CC7EB",
"!. c #8CC9EC",
"~. c #94C5E9",
"^. c #8CCDF5",
"/. c #87CEFA",
"(. c #89CEFA",
"). c #91CAF4",
"_. c #95C9F6",
"`. c #85D1F7",
"'. c #85D0F9",
"]. c #D5D2CD",
"[. c #D6D4CA",
"{. c #D7D4D1",
"}. c #E7E4DD",
"|. c #D0ECFC",
" X c #E9E8E1",
".X c #FCFBF6",
"XX c #FAF9F3",
"oX c #F9F7ED",
/* pixels */
"/./././././././././././././././././././././././././././././././././././././././././.",
"/./././././././././././././././././././././././././././././././././././././././.(./.",
"/./././././././././././././././././././././././././././././././././././././././././.",
"/./././././././././././.Q././././././././././././././.x./.A././././././././././././.",
"/./././././././././././././././././././././.^./././.c.k Y.v.c ^.(.(.(./././././././.",
"(./././././././././././././././././././././././.R./.l j l m S.).Q.(././././././././.",
"/./././././././././././././././././././././././.^.T.g f f f s 8.(./.(./././././././.",
"/./././././././././././././././././././././././.v.n f f f f g b U./././././././././.",
"/././././././././.^./././././././././././././.(.).v.f f f d g 9./.(././././././././.",
"/./././././././././././././././././././././././._.!.s f f f b _.^./.(./././././././.",
"/./././././././././././././././././././././././.^.z.~.Y.h h _.v././././././././././.",
"/./././././././././././././././././././././.(./.(.(.S._.z b.'./.^./.(./././././././.",
"/././././././././././././././././././.(.(./.(.^.K.N.k.4.>./.(./././././././././././.",
"/././././././././././././././.^././.(.(.Q.2.5.<.C.M.P.(././.(.(././././././././././.",
"/./././././././././././././././././.(.H.5.Q.(./././././././././././././././././././.",
"/././.(./././././././././././././././.f.5.(././././././././././././././././././././.",
"/./././././././.(.(.(.(.(.(./././.(./.g.3.(./././././.(.(.(.^.(.(.(.(.(.(.(././././.",
"/././././././.n.&.P } *.(.(././.(.(.E.=.6.7.y.Q./.'./.'.'.W.X.V $.j.).(.'.(././././.",
"/./././././.(. .' K H Y n.(././.Q.u.- 9 ;.t 5 = G.).^./.(.$.Z X.] o.,./././././././.",
"/./././././.*.` U ' J P h.(./.e       O # + . - @ = 7./.'.L J C _ ] _ I././././././.",
"/./././././.{ ( Y Y [ / d.W.,             * , -       2 Q.} ] | ] U _ 1././././././.",
"/./././././.) ` Y X.Z  .H.1               &           . r J A L Z ) _ &././.'./././.",
"/./././.W.u S ' / { O.-.G.X           - @ & :           . P. .' { [ ] 7 G.(.(./././.",
"/././.^.9 7 D.(.^.!.^./.$     X .   * @ + O .   X   .     , ^./.).^.(.8 0 l.'./././.",
"/././.(.7 6 /././././.^..   o L.L.L.I.q.. e J.L.J.K.J.    o /./././.(.l.7 u ^./././.",
"/././.!.7 0 )./.'.`./.).      Q./././.#   . u.(././.w       /.(./././.G.9 8 /./././.",
"/./././.i 7 q 9 8 p p y         3 e .         > w %         i p t 9 7 7 8 D././././.",
"/./././.E.e.9 6 7 6 7 9         X   X                       7 9 9 7 0 8 K./././././.",
"/././././././.^.Q.K.K.K.            . . . .   X             K.K.I.^.(.(././././././.",
"/./././././././././.(.'.      o f.Z. X{..X]..X.XZ.a .     + '.'././././././././././.",
"/./././././././././././.@     V.].].}.].oX].oXoX X}.;     , /.(./.(./././././././.|.",
"/./././././././././././.J.X                             . E./.(.(././././././././.^.",
"/./././././././././././.(.1                             r /.^.'.(.'.'.'./././././.^.",
"/././././././././././.(.(.u < .                       2 Q./.(.(.(.^.(.(././././././.",
"/./././././.B.+.+.0./.(.8 7 8 e                   . 4 v i /.i.M ! F G (././././././.",
"/././././.Q.! Q E Q @.6 7 W././.Q.u.* X       : D.!.^.8 7 7 Q Q Q ! D (././././././.",
"/./././././.%.Q Q Q 7 7 m.(.(.(././.'.(.(././.(././.(./.m.7 G W ! @.B.`././././././.",
"/././././.(.B.D E E 7 9 s.(./.(.(./.(.(./.(.(.'.'./.(./.).0 G E W m././././././././.",
"/././././././.^.s.F R R +.(././././././././.'.(./././.(.!.! E ! N '././././././././.",
"/././././.^./././.B.~ R i.'.(././.(././././.(.'././././.(.D W G `.'././././././././.",
"/./././././././././.B M ^./././.(.(.(.(.'.(.'.(.(././.(.(.t.%.0./.(././.(./././././.",
"/./././././././././.(./.(./././.(.(.(.(.'.(.(.(.(.(.(.(.(.(.(.(./././.(././././././."
};
