/* XPM */
static char *result[] = {
/* columns rows colors chars-per-pixel */
"42 42 190 2 ",
"   c #030202",
".  c #090606",
"X  c #090907",
"o  c #0E0B0A",
"O  c #070B07",
"+  c #100E0A",
"@  c #0E120F",
"#  c #13110F",
"$  c #141312",
"%  c #1A1A1A",
"&  c #211F1D",
"*  c #23282B",
"=  c #272624",
"-  c #35322E",
";  c #2B2E31",
":  c #2F3234",
">  c #373736",
",  c #403933",
"<  c #4F4A3F",
"1  c #3C4345",
"2  c #534C44",
"3  c #55524E",
"4  c #4A595F",
"5  c #635E5C",
"6  c #7B6D4A",
"7  c #767846",
"8  c #767744",
"9  c #766B54",
"0  c #7A6A55",
"q  c #766B5B",
"w  c #796A59",
"e  c #485B66",
"r  c #556C79",
"t  c #716F66",
"y  c #767467",
"u  c #75726B",
"i  c #7A7C77",
"p  c #6E6862",
"a  c #D80E1D",
"s  c #E1090E",
"d  c #E50312",
"f  c #EA0212",
"g  c #E40816",
"h  c #E70A18",
"j  c #DA0E20",
"k  c #D11831",
"l  c #E01826",
"z  c #D6303E",
"x  c #DC2C3D",
"c  c #C53949",
"v  c #8C7658",
"b  c #8E7B60",
"n  c #CB485B",
"m  c #C05C73",
"M  c #7E804C",
"N  c #7F8351",
"B  c #7D9543",
"V  c #79926A",
"C  c #7C827B",
"Z  c #7B9478",
"A  c #829839",
"S  c #A79E34",
"D  c #94BC2B",
"F  c #8AA53A",
"G  c #92B736",
"H  c #B7A828",
"J  c #B0AB3E",
"K  c #CCBD1D",
"L  c #C7BA2D",
"P  c #C2BE37",
"I  c #91C41E",
"U  c #8EC324",
"Y  c #91C223",
"T  c #91C128",
"R  c #98C237",
"E  c #FEEE06",
"W  c #FEEE09",
"Q  c #FDF003",
"!  c #FCF10A",
"~  c #EFE218",
"^  c #F4ED19",
"/  c #FAF116",
"(  c #CEC735",
")  c #D1CE3B",
"_  c #D1CC27",
"`  c #E0D622",
"'  c #E8E225",
"]  c #F0E623",
"[  c #8C9350",
"{  c #A5AB5F",
"}  c #959967",
"|  c #929E77",
" . c #AA9F7C",
".. c #9CA76E",
"X. c #BEA96F",
"o. c #B2B077",
"O. c #E09756",
"+. c #C9A66D",
"@. c #C1A673",
"#. c #D1AE7A",
"$. c #DCB775",
"%. c #F0A16E",
"&. c #E6BB75",
"*. c #E4B96F",
"=. c #5D7E90",
"-. c #5E7682",
";. c #657884",
":. c #B67691",
">. c #B6708A",
",. c #A17EA2",
"<. c #779AAC",
"1. c #779CB3",
"2. c #7FA6BE",
"3. c #8D8B84",
"4. c #969888",
"5. c #829596",
"6. c #999995",
"7. c #A29F98",
"8. c #93A88F",
"9. c #9FB383",
"0. c #96A09C",
"q. c #8DAC98",
"w. c #ABA48B",
"e. c #A7A999",
"r. c #B9AA90",
"t. c #839FAD",
"y. c #849AA5",
"u. c #A891AD",
"i. c #A696BB",
"p. c #A68FAA",
"a. c #8CAEAA",
"s. c #94A9A5",
"d. c #85A5B3",
"f. c #89ABBA",
"g. c #84AAB6",
"h. c #B9B5A9",
"j. c #BBB5A7",
"k. c #BFBDB9",
"l. c #C3BBAC",
"z. c #CDC7B9",
"x. c #86AFC1",
"c. c #9EA4C1",
"v. c #8AB5CB",
"b. c #89B3C5",
"n. c #93BBCF",
"m. c #8ABBD4",
"M. c #8BB9D5",
"N. c #90BEDB",
"B. c #AAA6C9",
"V. c #A2AAD0",
"C. c #96BFE9",
"Z. c #94C0DA",
"A. c #8BC3E4",
"S. c #8CC9EE",
"D. c #8DC6E8",
"F. c #9BC1E6",
"G. c #94C5E8",
"H. c #9CD0EE",
"J. c #8BCDF6",
"K. c #87CEFA",
"L. c #89CEFA",
"P. c #87CFF7",
"I. c #9AC7F2",
"U. c #92CCF2",
"Y. c #99C8F2",
"T. c #86D0F6",
"R. c #86D0FA",
"E. c #98D2F6",
"W. c #AAD5ED",
"Q. c #ABD7EC",
"!. c #B4D8EB",
"~. c #B7D9EA",
"^. c #A3D3F1",
"/. c #C7CFCF",
"(. c #D6D3CD",
"). c #D8D7D3",
"_. c #D8DAD8",
"`. c #E1DDC7",
"'. c #ECE7D7",
"]. c #E4E3DC",
"[. c #EDE6D8",
"{. c #E3E0D7",
"}. c #C5DDE4",
"|. c #CDE2E3",
" X c #D4E3E2",
".X c #D0ECFC",
"XX c #E7E7E2",
"oX c #F1EEE6",
"OX c #FDFCF9",
"+X c #FBFAF4",
/* pixels */
"K.K.K.K.K.K.K.K.K.K.K.K.K.K.K.K.K.K.K.K.K.K.K.K.K.K.K.K.K.K.K.K.K.K.K.K.K.L.K.K.K.K.",
"K.K.K.K.K.K.K.K.K.K.K.K.K.K.K.K.K.K.K.K.K.K.J.K.K.K.K.K.K.K.K.K.K.K.K.K.K.K.K.K.K.K.",
"K.K.K.K.K.K.K.K.K.K.K.K.K.K.K.K.K.K.K.K.K.K.K.K.K.K.K.K.K.K.K.K.K.K.K.K.K.K.K.K.K.K.",
"K.K.K.K.K.K.K.K.K.K.K.K.K.K.K.K.K.K.K.K.K.K.K.K.K.K.J.K.K.K.K.K.K.K.K.K.K.K.K.K.K.K.",
"K.K.P.K.K.K.K.K.K.K.K.S.K.K.K.K.K.K.K.K.K.K.K.K.K.K.K.K.K.K.K.K.K.K.K.K.K.K.K.K.K.K.",
"K.K.L.K.K.K.K.K.K.K.K.K.K.K.K.K.K.K.K.K.K.K.K.K.K.K.K.K.K.K.K.K.K.K.K.K.K.K.K.K.K.K.",
"K.K.K.K.K.K.K.K.K.K.K.K.K.K.K.K.K.K.K.K.K.K.K.K.K.K.K.K.K.K.K.K.K.K.K.L.K.K.K.K.K.K.",
"K.K.K.K.K.K.K.K.K.K.K.K.K.K.K.K.K.K.K.K.K.K.K.K.K.K.K.K.K.K.K.K.K.L.K.L.K.K.K.K.K.K.",
"K.K.K.K.K.K.K.K.K.K.K.K.K.K.K.K.K.K.K.K.K.K.K.K.K.K.K.K.K.K.K.,.F.u.L.P.K.K.K.K.K.K.",
"K.K.L.K.K.K.K.K.K.K.K.K.K.K.K.K.K.K.K.K.L.K.L.L.K.K.K.K.K.K.c.:.>.c I.p.L.K.K.K.K.K.",
"K.K.K.K.K.K.K.K.K.K.K.K.K.K.K.K.K.K.K.K.L.L.L.L.S.K.K.K.C.i.i.c g l c I.i.K.K.K.K.K.",
"K.K.K.K.K.J.K.K.K.K.K.K.K.K.K.K.K.K.K.K.K. .$.+.+.&.X.C.L.U.l f f f d n J.L.K.K.K.K.",
"K.K.K.K.K.K.K.K.K.K.K.K.K.K.K.K.K.K.K.K.f.o.L.L.K.K.n.&.I.V.h f f d f x F.L.K.K.K.K.",
"K.K.K.K.K.K.K.K.K.K.K.K.K.K.K.K.K.K.K.L.s.s.L.L.K.J.P. .0.B.g d f f d a F.K.K.K.K.K.",
"K.K.K.K.K.K.K.K.K.K.K.K.K.K.K.K.K.K.L.L.e.a.L.L.J.L.L.L.&.4.k d f f j m J.K.K.K.K.K.",
"K.K.K.K.K.K.K.K.K.K.K.K.K.K.K.K.K.K.K.N.6.4.U.J.R.L.L.L.6.O.J.:.i.%.I.U.J.L.K.K.K.K.",
"K.K.K.K.K.K.K.K.K.K.K.K.K.K.L.L.L.A.e 2 v b - 4 N.K.L.R.N.#.G.I.V.&.V.R.K.K.K.K.K.K.",
"K.K.K.L.K.K.K.K.K.K.K.K.K.L.P.1.      % > >       ; <.L.L.b.X.v.s.@.K.L.K.L.K.K.K.K.",
"K.K.L.R.K.K.K.K.K.K.K.K.K.J.;.                        r J.K.f.r.w.J.K.L.K.K.K.K.K.K.",
"K.K.L.L.K.K.K.K.K.J.K.K.K.;.o                         o J.K.P.S.J.K.K.K.K.K.K.K.K.K.",
"L.K.K.K.K.K.K.K.K.K.K.K.J.  X                         . > S.L.L.K.K.K.K.K.K.K.K.K.K.",
"K.K.K.J._ ^ / { q.S.L.K.:   r K.*               X M.L.$   ; K.K.K.K.K.K.K.K.K.K.K.K.",
"R.R.K.d.! E W ^ L ..K.K..   =.K.D.-.            1.K.L.%   X L.K.K.K.K.K.K.K.K.K.K.K.",
"R.T.T.o.Q Q E W ` ` K.J.    = J.P.t C %     5.q d.K.K.      K.K.K.K.K.K.K.K.K.K.K.K.",
"R.K.K.8.Q Q Q Q / m.P.U.      r K.J.A..   . <.J.L.2.*       S.K.K.J.K.K.K.K.K.K.K.K.",
"K.K.K.d.Q E Q Q ] P.K.U.  $ ;   2 e @         = e .   &     v.J.P.K.K.K.K.K.K.K.K.K.",
"K.K.K.K.} J L | A.K.L.N.  2 {.                        G.    w w 9 i J.J.K.L.L.K.K.K.",
"R.K.K.L.L.K.9 i 5.y 0 0   + l.XX>                 6./.n.  . U.x.5.w 0 p P.L.K.K.K.K.",
".XE.K.L.L.R.q w 0 0 q 0 $   5 XXoXe.=       . & 3.XX_.-.  # K.K.K.y.0 w f.L.L.K.K.K.",
"L.L.K.K.L.L.K.d.t.M.K.K.M.    3.+X_.OX).OX].).OX(.XX6.  $ x.J.J.K.T.v.w w R.L.K.K.K.",
"L.K.L.K.L.L.P.K.K.L.K.L.K.:     o 3 ].(.OX].(.XX5       N.J.v.} } ~ S v g.R.L.K.K.K.",
"K.K.K.L.L.J.K.K.K.K.K.L.L.v.*       o 2 t p - $       = P.J.( H ~ E Q L J.K.K.K.K.K.",
"K.K.K.K.K.K.K.K.K.K.L.K.J.K.P.1                   . 1 K.L.L.' L Q Q Q Q 9.L.L.R.L.R.",
"K.K.K.K.K.K.K.K.K.K.K.K.K.K.K.L.C 2 o         O 2 M.K.K.L.L.N.! Q Q W W q.L.L.L.K.L.",
"K.K.K.K.K.K.K.K.K.K.K.K.K.L.K.L.w 0 J.L.J.P.K.K.w u S.K.R.L.R.) Q E ! ) R.R.L.K.K.K.",
"K.K.K.K.K.K.K.K.K.K.K.K.K.L.L.J.w q L.K.K.P.K.K.y w v.K.L.L.R.a.P ! ( a.L.L.R.K.K.K.",
"K.K.K.K.K.K.K.K.K.K.P.T.J.V B 7 9 i L.K.K.K.K.K.d.q 9 F Z x.R.R.P.P.L.L.R.L.K.K.K.K.",
"K.K.K.K.K.K.K.K.K.P.K.Z.D U I 7 9 F V R.K.K.K.A.D 0 9 U U U Z L.K.K.R.L.K.K.K.K.K.K.",
"K.K.K.K.K.K.K.K.K.K.P.<.I Y I A 7 D G P.K.K.P.Z I 6 8 I I T F L.J.R.L.L.R.K.K.K.K.K.",
"K.K.K.K.K.K.K.W.~.}.}.N I U D Y T R G XX'.[.(.[ D I I U U U T }.]. X~.W.L.K.K.K.K.K.",
"K.K.K.K.K.K.K.E.W.~. X Xh.j.j.l.l.w.z.'.'.'.[.[.r.e.j.l.h.h.). X|.}.W.^.L.K.K.K.K.K.",
"K.K.K.K.K.K.K.K.L.L.P.P.E.^.W.W.W.Q.W.!.!.!.Q.W.W.W.W.^.H.Y.P.J.K.L.L.L.K.K.K.K.K.K."
};
