/* XPM */
static char *result[] = {
/* columns rows colors chars-per-pixel */
"42 42 90 1 ",
"  c #090A09",
". c #140C04",
"X c #1C100A",
"o c #0C0F13",
"O c #191513",
"+ c #1B1C1D",
"@ c #2D1606",
"# c #281508",
"$ c #371D05",
"% c #3C1D02",
"& c #3E2104",
"* c #3B2C1B",
"= c #1F1E20",
"- c #252625",
"; c #262826",
": c #252729",
"> c #26292C",
", c #2B2A29",
"< c #302E2F",
"1 c #2D2E31",
"2 c #302E33",
"3 c #2F3030",
"4 c #323233",
"5 c #35373A",
"6 c #35383B",
"7 c #3B3C3C",
"8 c #452304",
"9 c #4A2404",
"0 c #4F2904",
"q c #44250A",
"w c #532704",
"e c #562C03",
"r c #5A2C02",
"t c #452F1C",
"y c #622F02",
"u c #633203",
"i c #463220",
"p c #373D42",
"a c #393D41",
"s c #3E4144",
"d c #3C444B",
"f c #444546",
"g c #464847",
"h c #444649",
"j c #44494D",
"k c #4B4C4D",
"l c #464A50",
"z c #4B4E52",
"x c #4D5155",
"c c #4D535A",
"v c #515254",
"b c #575857",
"n c #585857",
"m c #525559",
"M c #57595A",
"N c #595A5B",
"B c #4E5860",
"V c #555B63",
"C c #415E71",
"Z c #5B6167",
"A c #5A636A",
"S c #5D686D",
"D c #48697C",
"F c #61656B",
"G c #646A6D",
"H c #646C74",
"J c #686F76",
"K c #666E78",
"L c #67717B",
"P c #6A747D",
"I c #6B7682",
"U c #6C7884",
"Y c #6C7A88",
"T c #727981",
"R c #717C89",
"E c #75828D",
"W c #78818C",
"Q c #6D8090",
"! c #7B8692",
"~ c #7E8A94",
"^ c #7C8C99",
"/ c #7396AC",
"( c #7FBCE1",
") c #828A93",
"_ c #81B6D7",
"` c #85BDE1",
"' c #8CC7F0",
"] c #8BCDF5",
"[ c #87CEFA",
"{ c #89CEFA",
/* pixels */
"[[[[[[[[[[[[[[[[[[[[{[[[[[[[[[[[[[[[[[[[[[",
"[[[[[[[[[[[[[[[[[[[]{[{[[[[[[[[[[[[[[[[[[[",
"[[[[[[[[[[[[[[[[[(^RR~S/[[[[[[[[[[[[[[[[[[",
"[[[[[[[[[[[[[[[[dUUKUUU>L'[[[[[[[[[[[[[[[[",
"[[[[[[[[[[[[[[VIRUUUUUU!U6H[[[[[[[[[[[[[[[",
"[[[[[[[[[[[[[ULVmaUUj!5UUUEP_[[[[[[[[[[[[[",
"[[[[[[[[[[[[dKPIUHPHxIcUUI6VP{[[[[[[[[[[[[",
"[[[[[[[[[[[CUUsIc@8%&%&sI5UUxQ[[[[[[[[[[[[",
"[[[[[[[[[[]UYUI.&%8eurr0OUUzUL`[[[[[[[[[[[",
"[[[[[[[[[[sIUU#%&rueurrrrXIEUoP[[[[[[[[[[[",
"[[[[[[[[[[URl18%ueueuerrr8cpEUH'{[[[[[[[[[",
"[[[[[[[[[DUUP$8wuru0ueurr8#EIYSL[[[[[[[[[[",
"[[[[[[[[[HLIU%8ruru9yerrr8rLYSzL{[[[[[[[[[",
"[[[[[[[[{RVUP&urururyrrrr9r5Ud)P{[[[[[[[[[",
"[[[[[[[[{~)!T%ueueururrrr8rdEWWP{[[[[[[[[[",
"[[[[[[[[[UdIH&ururururrrr8rkUUPL{[[[[[[[[[",
"[[[[[[[[[UUpg8urueueyrrrr9rlUUPP[[[[[[{[[[",
"[[[[[[[[[UIIHsnNMNNNNnNnNbN-UUPK[[[[[[[[[[",
"[[[[[[[[[lZZf,k7k,xgkzxk5k7 as4L[[[[{[[[[[",
"[[[[[[[[[YUUH+;,;;;;-;;,-;;xUULU[[[[[[[[[[",
"[[[[[[[[[HPPF%urururyerrw8wkLKHI{[[[[[[[[[",
"[[[[[[[[[QPUH%ururururur98wxIIPP{[[[[[[[[[",
"[[[[[[[[[xGSv%ururueyerr98ra>JGP{{[[[[[[[[",
"[[[[[[[[[UUYJ%urururyerr09rzUU;P{[[[[[[[[[",
"[[[[[[[[[UUUa%ururuerrurt*rxlH-L[[[[[[[[[[",
"[[[[[[[[[UUUH%ururueuerr7aixUY-U[[[{[[[[[[",
"[[[[[[[[[UUUK&ururueuerrr8GxUU>L[[[[[[{[[[",
"[[[[[[[[[dljh%urururueurqqt+VVcP{[[[[[[[[[",
"[[[[[[[[[!UUH&urururuerre9elUUUK{{{[[[[[[[",
"[[[[[[[[[!UUJ&ururururrre8elUUPL[[[[[[[[[[",
"[[[[[[[[[ULYJ=424,244,44241lUUPP[[[[[[[[[[",
"[[[[[[[[[cxx7<z7zfxhvgvhvzM+lj1U[[[[[[[[[[",
"[[[[[[[[[IUIJ4ggghjhhgjhggglUUVP]{{[[[[[[[",
"[[[[[[[[[ZZAx%ururyryryrr9rlUPVL{{[[[[[[[[",
"[[[[[[[[[ULUK%ururyryrrrr8rjIUVP{[[[[[[[[[",
"[[[[[[[[[hdh5%ururyrurrrr891JJaP{[[[[[[[[[",
"[[[[[[[[[U!UH%urururyrrre89zUUIP{[[[[[[[[[",
"[[[[[[[[[IUUH%urueyryryyr8rvUUJP{[[[[[[[[[",
"[[[[[[[[[UIUJ%ueururyrrrr9rzUUPI{[[[[[[[[[",
"[[[[[[[[[UpTH%ururueyerrr8ezUUHJ[[[[[[[[[[",
"[[[[[[[[[][[]]]]]]{][]]]]]]]]]]][[[[[[[[[[",
"[[[[[[[[[[[[[[[[[[[[[[[[[[[[[[[[[[[[[[[[[["
};
