/* XPM */
static char *result[] = {
/* columns rows colors chars-per-pixel */
"42 42 96 2 ",
"   c LightSkyBlue",
".  c #89CFF8",
"X  c #92D3E4",
"o  c #A1D8C9",
"O  c #A9DCB8",
"+  c #A9DCB7",
"@  c #A1D9C8",
"#  c #93D3E3",
"$  c #88CEFA",
"%  c #8DD0F0",
"&  c #BCE390",
"*  c #E2F340",
"=  c #F8FC11",
"-  c #FEFF03",
";  c #FFFF01",
":  c #FFFF02",
">  c #F9FC0F",
",  c #E5F43A",
"<  c #BFE589",
"1  c #8FD1EC",
"2  c #A6DABF",
"3  c #ECF72C",
"4  c #FFFE02",
"5  c yellow",
"6  c #F1F923",
"7  c #AADCB4",
"8  c #88CEF9",
"9  c #C1E588",
"0  c #FCFD09",
"q  c #FDFE06",
"w  c #C8E878",
"e  c #89CEF8",
"r  c #B8E299",
"t  c #FDFE07",
"y  c #C0E58A",
"u  c #89CFF7",
"i  c #AADCB7",
"p  c #FAFD0D",
"a  c #B1DFA7",
"s  c #E8F535",
"d  c #EEF729",
"f  c #8BCFF4",
"g  c #87CEFB",
"h  c #AADCB6",
"j  c #B5E09F",
"k  c #DFF24A",
"l  c #E8F634",
"z  c #F9FD10",
"x  c #90D1EA",
"c  c #97D4DD",
"v  c #9FD8CD",
"b  c #9DD7D3",
"n  c #A5DAC1",
"m  c #9BD6D6",
"M  c #A3D9C4",
"N  c #91D2E8",
"B  c #FEFF04",
"V  c #99D5D9",
"C  c #EFF825",
"Z  c #F7FB16",
"A  c #89CFF6",
"S  c #C8E979",
"D  c #D3ED62",
"F  c #93D3E4",
"G  c #FBFD0A",
"H  c #FEFE06",
"J  c #9AD6D6",
"K  c #CAE974",
"L  c #D2EC63",
"P  c #E5F43C",
"I  c #EBF62F",
"U  c #95D4E0",
"Y  c #98D5DA",
"T  c #F1F823",
"R  c #9CD7D2",
"E  c #93D2E4",
"W  c #E2F343",
"Q  c #FEFE03",
"!  c #E7F538",
"~  c #97D4DC",
"^  c #B4DFA3",
"/  c #F3FA1E",
"(  c #F6FB18",
")  c #B8E298",
"_  c #8BD0F4",
"`  c #8ED1ED",
"'  c #AEDEAD",
"]  c #CEEB6A",
"[  c #ECF72B",
"{  c #ECF82A",
"}  c #E3F43E",
"|  c #D0EC65",
" . c #B0DFA8",
".. c #90D2E9",
"X. c #88CEF8",
"o. c #88CFF8",
/* pixels */
"                                                                                    ",
"                                                                                    ",
"                                                                                    ",
"                                                                                    ",
"                                                                                    ",
"                                                                                    ",
"                                                                                    ",
"                                                                                    ",
"                                                                                    ",
"                                  . X o O + @ # .                                   ",
"                            $ % & * = - ; ; : > , < 1                               ",
"                            2 3 4 5 5 5 5 5 5 5 5 ; 6 7                             ",
"                        8 9 0 5 5 5 5 5 5 5 5 5 5 5 5 q w .                         ",
"                      e r t 5 5 5 5 5 5 5 5 5 5 5 5 5 5 - y u                       ",
"                      i p 5 5 5 5 5 5 5 5 5 5 5 5 5 5 5 5 t a                       ",
"                    . s ; 5 5 5 5 5 5 5 5 5 5 5 5 5 5 5 5 5 d f g                   ",
"                    h ; 5 5 5 5 5 5 5 5 5 5 5 5 5 5 5 5 5 5 ; j $                   ",
"                    k ; 5 5 5 5 5 5 5 5 5 5 5 5 5 5 5 5 5 5 5 l 8                   ",
"                  f z 5 5 5 5 5 5 5 5 5 5 5 5 5 5 5 5 5 5 5 5 t x                   ",
"                  c ; 5 5 5 5 5 5 5 5 5 5 5 5 5 5 5 5 5 5 5 5 ; v                   ",
"                  b 5 5 5 5 5 5 5 5 5 5 5 5 5 5 5 5 5 5 5 5 5 ; n                   ",
"                  m 5 5 5 5 5 5 5 5 5 5 5 5 5 5 5 5 5 5 5 5 5 ; M                   ",
"                  N B 5 5 5 5 5 5 5 5 5 5 5 5 5 5 5 5 5 5 5 5 : V                   ",
"                  8 C 5 5 5 5 5 5 5 5 5 5 5 5 5 5 5 5 5 5 5 5 Z A                   ",
"                    S ; 5 5 5 5 5 5 5 5 5 5 5 5 5 5 5 5 5 5 : D                     ",
"                    F G ; 5 5 5 5 5 5 5 5 5 5 5 5 5 5 5 5 5 H J                     ",
"                      K ; 5 5 5 5 5 5 5 5 5 5 5 5 5 5 5 5 ; L                       ",
"                      N P 5 5 5 5 5 5 5 5 5 5 5 5 5 5 5 ; I U                       ",
"                      $ Y 3 5 5 5 5 5 5 5 5 5 5 5 5 5 ; T R                         ",
"                          E W Q 5 5 5 5 5 5 5 5 5 5 4 ! ~                           ",
"                            A ^ / : ; 5 5 5 5 5 ; ( ) _                             ",
"                                ` ' ] * [ { } |  ...$                               ",
"                                    $ $ X.o.$                                       ",
"                                                                                    ",
"                                                                                    ",
"                                                                                    ",
"                                                                                    ",
"                                                                                    ",
"                                                                                    ",
"                                                                                    ",
"                                                                                    ",
"                                                                                    "
};
