/* XPM */
static char *result[] = {
/* columns rows colors chars-per-pixel */
"42 42 224 2 ",
"   c LightSkyBlue",
".  c #87CFFB",
"X  c #88CEFA",
"o  c #87CFFC",
"O  c #88CEFC",
"+  c #86CFFB",
"@  c #88CEFB",
"#  c #88CEF9",
"$  c #88CFF7",
"%  c #222F3A",
"&  c #010102",
"*  c #010301",
"=  c #29270B",
"-  c #7A7912",
";  c #BFBC1A",
":  c #CBCB11",
">  c #B4B41B",
",  c #676610",
"<  c #121302",
"1  c #010201",
"2  c #000102",
"3  c #46637C",
"4  c #87CFFA",
"5  c #87CEFB",
"6  c #5E8BA6",
"7  c #222306",
"8  c #EFED0D",
"9  c #EFEF02",
"0  c #F1EE02",
"q  c #F0EF02",
"w  c #EFF000",
"e  c #F0EF01",
"r  c #F1EF01",
"t  c #F0EF00",
"y  c #F1EF00",
"u  c #F0F001",
"i  c #DFDE16",
"p  c #040403",
"a  c #020304",
"s  c #8BC9F0",
"d  c #83BFE2",
"f  c #908E16",
"g  c #F2EE01",
"h  c #EFF001",
"j  c #F0EE04",
"k  c #F2EE02",
"l  c #2A2905",
"z  c #000205",
"x  c #87CFF8",
"c  c #88CFF8",
"v  c #89CEF9",
"b  c #080C0F",
"n  c #222106",
"m  c #F2EF01",
"M  c #F2EF04",
"N  c #030304",
"B  c #416075",
"V  c #87CEFC",
"C  c #89CDF9",
"Z  c #628DA6",
"A  c #050503",
"S  c #F3EF04",
"D  c #F0EE08",
"F  c #040104",
"G  c #89CDF7",
"H  c #597E94",
"J  c #191904",
"K  c #F0F000",
"L  c #EFEF04",
"P  c #020104",
"I  c #8BCCF5",
"U  c #233442",
"Y  c #41410B",
"T  c #020202",
"R  c #89CEFA",
"E  c #3A5367",
"W  c #252606",
"Q  c #EEF101",
"!  c #EFEF06",
"~  c #010304",
"^  c #88CEF6",
"/  c #88CFFA",
"(  c #030201",
")  c #F3EE07",
"_  c #F0EE05",
"`  c #000105",
"'  c #86CFFA",
"]  c #030203",
"[  c #EEEE0A",
"{  c #EBE90F",
"}  c #020100",
"|  c #EFEA0B",
" . c #7A7813",
".. c #5D87A2",
"X. c #ECEA11",
"o. c #F1EF02",
"O. c #EFF003",
"+. c black",
"@. c #020102",
"#. c #F1EF03",
"$. c #010202",
"%. c #DDDC14",
"&. c #F0EF03",
"*. c #000001",
"=. c #EFF102",
"-. c #8E8D14",
";. c #628FB0",
":. c #030306",
">. c #BDBD14",
",. c #0A0501",
"<. c #000100",
"1. c #0C0A01",
"2. c #020200",
"3. c #6092A8",
"4. c #050703",
"5. c #3D3C07",
"6. c #8ACEF7",
"7. c #75ACCF",
"8. c #E5E415",
"9. c #3E596B",
"0. c #83C0E6",
"q. c #020204",
"w. c #010204",
"e. c #8ACCF6",
"r. c #010303",
"t. c #F1EF04",
"y. c #EEF000",
"u. c #010101",
"i. c #86CEFB",
"p. c #030607",
"a. c #A19F17",
"s. c #010203",
"d. c #87CFF9",
"f. c #86CFFC",
"g. c #0B1017",
"h. c #757712",
"j. c #020201",
"k. c #182331",
"l. c #909114",
"z. c #020203",
"x. c #395767",
"c. c #4E4D10",
"v. c #F1F001",
"b. c #010104",
"n. c #0B1115",
"m. c #B7B31A",
"M. c #253744",
"N. c #72710F",
"B. c #000203",
"V. c #55788F",
"C. c #31330A",
"Z. c #E0DE15",
"A. c #435F74",
"S. c #78ADCC",
"D. c #0A0903",
"F. c #EEF005",
"G. c #303107",
"H. c #88CFF9",
"J. c #2B4150",
"K. c #58590D",
"L. c #5F86A1",
"P. c #222205",
"I. c #EFEF03",
"U. c #767513",
"Y. c #6D9DBE",
"T. c #80B6DE",
"R. c #050501",
"E. c #86CFF9",
"W. c #8ACEF8",
"Q. c #5A590E",
"!. c #6A9CB4",
"~. c #72A1BF",
"^. c #131203",
"/. c #ABAC17",
"(. c #273742",
"). c #83C2E6",
"_. c #030302",
"`. c #F1EE05",
"'. c #F2EE07",
"]. c #010302",
"[. c #8ACDF8",
"{. c #8ACEF9",
"}. c #030202",
"|. c #F3EE04",
" X c #F0F002",
".X c #F2EE03",
"XX c #F1EE04",
"oX c #75AFCE",
"OX c #050103",
"+X c #ECEB0E",
"@X c #89CDFC",
"#X c #1E2A33",
"$X c #0C0D03",
"%X c #F0EF04",
"&X c #EDEE09",
"*X c #648EAA",
"=X c #89CEF8",
"-X c #8BC9F1",
";X c #040102",
":X c #4D4E11",
">X c #EFF004",
",X c #0F0D02",
"<X c #020306",
"1X c #88CDFA",
"2X c #7FB5DA",
"3X c #030103",
"4X c #0A0A01",
"5X c #E1E016",
"6X c #F2EE05",
"7X c #A2A312",
"8X c #010307",
"9X c #8BCDF8",
"0X c #8ACDFA",
"qX c #466476",
"wX c #010103",
"eX c #0B0901",
"rX c #505011",
"tX c #7D7B11",
"yX c #87870E",
"uX c #737413",
"iX c #403F11",
"pX c gray1",
"aX c #608DAA",
"sX c #88CFFB",
/* pixels */
"                                                                                    ",
"                        . X . . o X O X + @ X #                                     ",
"                X + # $ % & * = - ; : > , < 1 2 3 4 X +                             ",
"              5 4 6 * 7 8 9 0 q w e r t y u r r i p a s     5                       ",
"              d 1 f g h t t t t t t t t t t t t t j k l z x c                       ",
"        X v b n m e t t t t t t t t t t t t t t t t t t M N B V                     ",
"      C Z A S t t t t t t t t t t t t t t t t t t t t t t h D F G 5                 ",
"      H J K t t t t t t t t t t t t t t t t t t t t t t t t t L P I @               ",
"      U Y K t t t t t t t t t t t t t t t t t t t t t t t t t h h T R               ",
"      4 E W Q t t t t t t t t t t t t t t t t t t t t t t t t t e ! ~ ^             ",
"        X / ( ) t t t t t t t t t t e t t t t t t t t t t t t t t q _ `             ",
"          5 ' ] [ w t t t t t t { 1 } | t t t t t t t t t t t t t t t  ...X         ",
"              . ] X.o.t t t t O.+.+.+.@.q t t t t t t t t t t t t t t #.P @ V       ",
"              @   $.%.e t t t &.*.+.+.& =.t t t t t t t t t t t t t t q -.;.@       ",
"                  # :.>.t t t r ,.<.+.1.t t t t t t t t t t t t t t t t 0 2.@       ",
"                      3.4.K t t h &.q w t t t t t t t t t t t t t t t t e 5.6.      ",
"                        7.( u t t t t t t t t t t t t t t t t t t t t t t 8.9.      ",
"                          0.q.o.e t t t t t t t t t t t t t t t t t t t t #.w./     ",
"                          V e.r.t.t t t t t t t t t t t t t t t t t t t t y.u.+     ",
"                              i.p.a.e t t t t t t t t t t t t t t t t t t K s.d.    ",
"                                f.g.h.u t t t t t t t t t t t t t t t t t y j..     ",
"                                $ k.l.r t t t t t t t t t t t t t t t t t K z..     ",
"                              f.x.c.e e t t t t t t t t t t t t t t t t t v.b.x     ",
"                            ' n.m.r t t t t t t t t t t t t t t t t t t t e & V     ",
"                        X 5 M.N.q t t t t t t t t t t t t t t t t t t t t e B.4     ",
"                        4 V.C.r t t t t t t t t t t t t t t t t t t t t t Z.A.      ",
"                      6.S.D.F.t t t t t t t t t t t t t t t t t t t t t y G.H.      ",
"                      J.K.t t t t t t t t t t t t t t t t t t t t t t t #.2.@       ",
"                  4 L.P.t t t t t t t t t t t t t t t t t t t t t t t I.U.Y.'       ",
"                  T.R.m t t t t t t t t t t t t t t t t t t t t t t t I.@.X E.      ",
"                W.r.u t t t t t t t t t t t t t t t t t t t t t t t t Q.!.X         ",
"              ~.^.t t t t t t t t t t t t t t t t t t t t t t t t u /.(.            ",
"          5 )._.`.t t t t t t t t t t t t t t t t t t t t t t t u '.].[.            ",
"        v {.}.#.t t t t t t t t t t t t t t t t t t t t t t t q |.u.o               ",
"        f.j. X.Xt t t t t t t t t t t t t t t t t t t t t t t XXs.X X               ",
"        oXOX0 t t t t t t t t t t t t t t t t t t t t t t &.+X( V                   ",
"          @X#X$X%Xe t t t t t t t t t t t t t t t t t t &X}.*X=X                    ",
"              -X;X:Xo.r t t t t t t t t t t t t t h >X,X<X1Xv                       ",
"              X X 2X3X4X5X%Xu e r r r u e e e 6X7XT 8X9XX                           ",
"                  + + 0XqXwX1 eXrXtXyXuXiXpX1 a aXX V 5                             ",
"                        V X o 5 X 5 . sXf.5 @ R                                     ",
"                                                                                    "
};
