/* XPM */
static char *result[] = {
/* columns rows colors chars-per-pixel */
"42 42 251 2 ",
"   c LightSkyBlue",
".  c #87CFF9",
"X  c #88CEFB",
"o  c #86CFFB",
"O  c #88CEFA",
"+  c #88CEF9",
"@  c #88CFFB",
"#  c #86CFFC",
"$  c #87CEFB",
"%  c #85D0FB",
"&  c #85CFFD",
"*  c #89CEF9",
"=  c #202E39",
"-  c #010103",
";  c #010201",
":  c #0C0C01",
">  c #615F10",
",  c #AFAE1A",
"<  c #C7C515",
"1  c #C8C614",
"2  c #9D9D14",
"3  c #66650D",
"4  c #120F01",
"5  c #020203",
"6  c #000103",
"7  c #182128",
"8  c #89CFF7",
"9  c #89CDFB",
"0  c #87CFFA",
"q  c #87CFFB",
"w  c #1D2A34",
"e  c #020102",
"r  c #222107",
"t  c #EEEF0C",
"y  c #F0EF02",
"u  c #F1EF01",
"i  c #F0F001",
"p  c #F1EF00",
"a  c #F0F000",
"s  c #F0EF01",
"d  c #EFF000",
"f  c #F0EF08",
"g  c #373909",
"h  c #010202",
"j  c #10151E",
"k  c #86CFF9",
"l  c #86CFF8",
"z  c #304352",
"x  c #020103",
"c  c #EAE512",
"v  c #EFF003",
"b  c #F0EF00",
"n  c #F3EE02",
"m  c #ECEE0D",
"M  c #182531",
"N  c #5C87A1",
"B  c gray1",
"V  c #B6B417",
"C  c #EFF002",
"Z  c #F2EF04",
"A  c #989613",
"S  c #030104",
"D  c #88CEFC",
"F  c #0B161A",
"G  c #3D3D0A",
"H  c #F0EF09",
"J  c #030304",
"K  c #89CEF6",
"L  c #5B7F99",
"P  c #020204",
"I  c #EFEF05",
"U  c #F1F001",
"Y  c #020303",
"T  c #354D5E",
"R  c #74A5C6",
"E  c #101004",
"W  c #EEF003",
"Q  c #F1F000",
"!  c #030202",
"~  c #101820",
"^  c #85CFFA",
"/  c #020301",
"(  c #F1EE03",
")  c #E0E211",
"_  c #020201",
"`  c #8CCFF6",
"'  c #F0EF04",
"]  c #F1EF03",
"[  c #C9CA14",
"{  c #86CFFA",
"}  c #8ACEF9",
"|  c #000202",
" . c #ECEF0A",
".. c #1B1A05",
"X. c #514B0C",
"o. c #F3EF01",
"O. c #F3EE01",
"+. c #090A02",
"@. c #030309",
"#. c #87CEFE",
"$. c #314957",
"%. c #D0D017",
"&. c #F1EF02",
"*. c #F0EF03",
"=. c #4A4B0F",
"-. c #000003",
";. c black",
":. c #000001",
">. c #030402",
",. c #719FBA",
"<. c #F0EF07",
"1. c #F0F002",
"2. c #000002",
"3. c #010102",
"4. c #F3EE00",
"5. c #48460B",
"6. c #6A9DBF",
"7. c #969415",
"8. c #030102",
"9. c #000102",
"0. c #ECEA0E",
"q. c #2B2A08",
"w. c #010204",
"e. c #020202",
"r. c #F2EE03",
"t. c #EFF001",
"y. c #F2EE02",
"u. c #131506",
"i. c #466A79",
"p. c #030205",
"a. c #EFEE09",
"s. c #070700",
"d. c #618CAA",
"f. c #8ACEF8",
"g. c #8ACBF2",
"h. c #74730E",
"j. c #ECED0C",
"k. c #010104",
"l. c #75A9C9",
"z. c #85D0FC",
"x. c #48687E",
"c. c #E0DF10",
"v. c #2E2E08",
"b. c #293A48",
"n. c #242E38",
"m. c #F0EE0B",
"M. c #F0F004",
"N. c #191705",
"B. c #3F5D70",
"V. c #010205",
"C. c #F0EF05",
"Z. c #EFEF07",
"A. c #5C839D",
"S. c #87CEFD",
"D. c #000305",
"F. c #F0EF06",
"G. c #040101",
"H. c #72A6C5",
"J. c #161E25",
"K. c #F1EE08",
"L. c #F2EF01",
"P. c #5F5C13",
"I. c #344A57",
"U. c #88CFF8",
"Y. c #415D71",
"T. c #E9ED0E",
"R. c #232307",
"E. c #6086A3",
"W. c #8CCDF7",
"Q. c #6E6C10",
"!. c #080802",
"~. c #0F171E",
"^. c #010304",
"/. c #5D5D0E",
"(. c #334758",
"). c #F2EF00",
"_. c #D0CF18",
"`. c #010408",
"'. c #84CFFD",
"]. c #415D6F",
"[. c #D0D316",
"{. c #909114",
"}. c #121D25",
"|. c #88CFF6",
" X c #EFEE0A",
".X c #494A0A",
"XX c #88CEFD",
"oX c #3B5769",
"OX c #030401",
"+X c #040104",
"@X c #86CEFB",
"#X c #87CEFC",
"$X c #8ACEFB",
"%X c #0C1016",
"&X c #EAE70E",
"*X c #F1ED08",
"=X c #85C4EB",
"-X c #040203",
";X c #F0F006",
":X c #E2E20F",
">X c #89CDF7",
",X c #020302",
"<X c #EEE90D",
"1X c #050003",
"2X c #88CDFB",
"3X c #7FB5D9",
"4X c #F2ED05",
"5X c #F1EE02",
"6X c #F5ED02",
"7X c #2F444D",
"8X c #EFEF08",
"9X c #252307",
"0X c #5A8298",
"qX c #89CEFB",
"wX c #243240",
"eX c #F1EE04",
"rX c #3C3A0C",
"tX c #88CFF9",
"yX c #87CFFC",
"uX c #777711",
"iX c #F0ED0C",
"pX c #050102",
"aX c #638BA7",
"sX c #89CDFD",
"dX c #84CFFB",
"fX c #567B94",
"gX c #4C4D0E",
"hX c #F0EE0D",
"jX c #0F0F03",
"kX c #020205",
"lX c #70A1BF",
"zX c #86CFFD",
"xX c #7FB4D7",
"cX c #0A0800",
"vX c #8F8F12",
"bX c #F1EE06",
"nX c #F0ED0B",
"mX c #F2EF02",
"MX c #C6C716",
"NX c #171804",
"BX c #020104",
"VX c #0E151C",
"CX c #8ACDFA",
"ZX c #7EB7D9",
"AX c #212E37",
"SX c #010101",
"DX c #000101",
"FX c #010203",
"GX c #020405",
"HX c #50748B",
"JX c #89CEFA",
/* pixels */
"                                                                                    ",
"                                    . X X o O + O @ # $ % & *                       ",
"                            O X * = - ; : > , < 1 2 3 4 5 6 7 8 * 9                 ",
"                    0   $ q w e r t y u i p p a u s d i y y f g h j +               ",
"                    k l z x c v s b b b b b b b b b b b b b b s n m 5 M &           ",
"                  X N B V b b b b b b b b b b b b b b b b b b b b b C Z A S D X     ",
"              0 $ F G y b b b b b b b b b b b b b b b b b b b b b b b b b H J K *   ",
"            O L P I b b b b b b b b b b b b b b b b b b b b b b b b b b b b U Y T   ",
"            R E W i b b b b b b b b b b b b b b b b b b b b b b b b b b b p Q ! ~   ",
"        X ^ / ( y b b b b b b b b b b b b b b b b b b b b b b b b b b b b ) _ O +   ",
"        ` e ' b b b b b b b b b b b b b b b b b s b b b b b b b b b b ] [ h { #     ",
"      } |  .b b b b b b b b b b b b b b b b C ..h X.o.b b b b b b b O.+.@.#.        ",
"    + $.%.&.b b b b b b b b b b b b b b b *.=.-.;.:._ Q b b b b y *.>.,.*           ",
"    * ; <.' b b b b b b b b b b b b b b b 1.B 2.;.;.3.4.b b b ] 5.- } $ $           ",
"    6.7.i b b b b b b b b b b b b b b b b b 1.8.;.9.0.p b b b q.w.O +               ",
"    e.y s b b b b b b b b b b b b b b b b b r.t.s ( y.b b b u.i.+                   ",
"    p.b b b b b b b b b b b b b b b b b b b b b b b b b a.s.d.                      ",
"f.g.h.b b b b b b b b b b b b b b b b b b b b b b b b j.k.l.                        ",
"z.x.c.b b b b b b b b b b b b b b b b b b b b b a U v.b.  $                         ",
"X n.m.b b b b b b b b b b b b b b b b b b b b s M.N.B.$                             ",
"q V.C.b b b b b b b b b b b b b b b b b b b p Z.5 A.S.                              ",
"q D.&.b b b b b b b b b b b b b b b b b b b i F.G.H.X                               ",
"{ J.K.b b b b b b b b b b b b b b b b b b b b p L.P.I.U.                            ",
"X Y.T.b b b b b b b b b b b b b b b b b b b b b b y R.E.o q                         ",
"o W.Q.b b b b b b b b b b b b b b b b b b b b b b a s !.~.X                         ",
"  $ ^.b b b b b b b b b b b b b b b b b b b b b b b b &./.(.o                       ",
"    - ( a b b b b b b b b b b b b b b b b b b b b b b b )._.`.'.q                   ",
"    ].[.s b b b b b b b b b b b b b b b b b b b b b b b b b {.}.|.                  ",
"    + e  XC b b b b b b b b b b b b b b b b b b b b b b b b b .XP XX                ",
"    O oXOXu b b b b b b b b b b b b b b b b b b b b b b b b b p y +X@X#X            ",
"      $X%X&Xb b b b b b b b b b b b b b b b b b b b b b b b b b b *Xh =XO           ",
"          -X;X1.b b b b b b b b b b b b b b b b b b b b b b b b b b :X^.>X          ",
"          { ,X<Xd b b b b b b b b b b b b b b b b b b b b b b b b b p ' 1X2X+       ",
"            3Xe.4Xy 5Xb b b b b b b b b b b b b b b b b b b b b b b b b 6X5 7X}     ",
"              q - 8Xi b b b b b b b b b b b b b b b b b b b b b b b b b b s 9X0X    ",
"                qXwXx eXb b b b b b b b b b b b b b b b b b b b b b b b s rXw.X     ",
"                  tXyXe.uXb b b b b b b b b b b b b b b b b b b b b i iXpXaXsXO     ",
"                      dXfXw.gXu s s b b b b b b b b b b b b b p hXjXkXlXzX          ",
"                      $   * xXw.cXvXbXnXmXs b u p i b L.eXMXNXBXVXCX                ",
"                                $   ZXAXe.SXSXSX3.9.DXFXGXHXo $   $                 ",
"                                    X JXX $ X X $ D JX  # O S.                      ",
"                                                                                    "
};
