/* XPM */
static char *result[] = {
/* columns rows colors chars-per-pixel */
"42 42 117 2 ",
"   c #020101",
".  c #0F0F03",
"X  c #1A1E14",
"o  c #1A1F18",
"O  c #1C2013",
"+  c #24250C",
"@  c #2B2C0B",
"#  c #323206",
"$  c #3B3B0B",
"%  c #2A2D14",
"&  c #22271A",
"*  c #262D1E",
"=  c #2D321C",
"-  c #343812",
";  c #1C2422",
":  c #1F2D36",
">  c #242D25",
",  c #212B28",
"<  c #293122",
"1  c #343E2D",
"2  c #222E31",
"3  c #212F39",
"4  c #2D3B34",
"5  c #25353F",
"6  c #2B393B",
"7  c #3E4422",
"8  c #3A432B",
"9  c #43440D",
"0  c #4C4D0C",
"q  c #504F08",
"w  c #545306",
"e  c #545309",
"r  c #5D5D0B",
"t  c #4B4F17",
"y  c #464A19",
"u  c #4A511E",
"i  c #535613",
"p  c #565811",
"a  c #505519",
"s  c #605F08",
"d  c #656607",
"f  c #696906",
"g  c #636208",
"h  c #696909",
"j  c #706F07",
"k  c #706E09",
"l  c #757507",
"z  c #7F7E06",
"x  c #757508",
"c  c #787708",
"v  c #7C7B09",
"b  c #404623",
"n  c #2D3F46",
"m  c #2E4045",
"M  c #2F434E",
"N  c #304145",
"B  c #31454F",
"V  c #304553",
"C  c #344A56",
"Z  c #334A58",
"A  c #375161",
"S  c #385264",
"D  c #3B5768",
"F  c #3E5B6B",
"G  c #45657A",
"H  c #46687E",
"J  c #878707",
"K  c #848309",
"L  c #8C8C08",
"P  c #908F09",
"I  c #959407",
"U  c #959409",
"Y  c #A3A309",
"T  c #B4B307",
"R  c #B8B707",
"E  c #BEBD07",
"W  c #B0B009",
"Q  c #B8B708",
"!  c #C0BE07",
"~  c #C5C407",
"^  c #CBCA06",
"/  c #D5D406",
"(  c #DCDB06",
")  c #E0DF06",
"_  c #E4E305",
"`  c #E8E703",
"'  c #EDEC03",
"]  c #F0EF00",
"[  c #4B7087",
"{  c #4E748D",
"}  c #527B94",
"|  c #567F9B",
" . c #56819C",
".. c #5B87A3",
"X. c #5D8AA6",
"o. c #5F8DAB",
"O. c #608FAC",
"+. c #6191AF",
"@. c #6495B3",
"#. c #6699B9",
"$. c #699DBD",
"%. c #6A9FC0",
"&. c #6DA3C6",
"*. c #6EA5C9",
"=. c #70A8CB",
"-. c #74AED2",
";. c #76B1D6",
":. c #77B5DB",
">. c #79B6DD",
",. c #7CBBE3",
"<. c #7EBFE8",
"1. c #7FC1EA",
"2. c #81C4ED",
"3. c #84C7F1",
"4. c #85C9F4",
"5. c #87CEFA",
"6. c #88CEFA",
/* pixels */
"5.5.5.5.5.5.5.5.5.5.5.5.5.5.5.5.5.5.5.5.5.5.5.5.5.5.5.5.5.5.5.5.5.5.5.5.5.5.5.5.6.5.",
"5.5.5.5.5.5.5.5.5.5.5.5.5.5.5.5.5.5.5.5.5.5.5.5.5.5.5.5.5.5.5.5.5.6.5.6.5.5.5.5.5.5.",
"5.5.5.5.5.5.5.5.5.5.5.5.5.5.5.5.5.5.5.5.5.5.5.5.5.5.5.5.5.5.5.5.5.5.6.4.6.5.5.5.6.5.",
"5.5.5.5.5.5.5.5.5.5.5.5.5.5.5.5.5.5.5.5.5.5.5.5.5.5.5.5.5.5.5.5.5.A  .6.5.5.5.6.5.5.",
"5.5.5.5.5.6.%.*.5.5.5.5.5.5.5.5.5.5.5.5.5.5.5.5.5.5.5.5.5.5.5.5.[ g 9 +.5.5.5.5.5.5.",
"5.5.5.5.5.>.& % &.5.5.5.5.5.5.5.5.5.5.5.5.5.5.5.5.5.5.5.5.5.5.+.0 ' ( % -.5.5.5.5.5.",
"5.5.5.5.5.C R / + #.5.5.5.5.5.5.5.5.5.5.5.5.5.5.5.5.5.5.5.5.$.@ _ ' ] ~ m 5.5.5.6.5.",
"5.5.5.5.X.g ] ] _ - @.5.5.5.5.5.5.5.5.5.5.5.5.5.5.5.5.5.5.,.= ( ] ] ] ' x } 5.5.5.5.",
"5.5.5.4.; ( ] ] ] ( $ o.5.5.5.5.5.5.5.5.5.5.5.5.5.5.5.5.<.; ~ ' ] ] ] ] _ & 4.5.5.5.",
"5.5.5.O.v ] ] ] ] ] _ 9 X.5.5.5.5.5.5.5.5.5.5.5.5.5.5.4.n W ] ' ] ] ] ] ] L  .5.5.5.",
"5.5.5.M ( ] ] ] ] ] ' _ $  .6.6.5.5.5.5.5.5.5.5.5.5.4.Z L ] ] ] ] ] ] ] ] _ m 4.5.5.",
"5.5.-.t ] ] ] ] ] ] ] ] ' 0 { 6.5.5.5.5.5.5.5.5.5.5.H x ' ] ] ] ] ] ] ] ] ] p &.5.5.",
"5.5.{ J ] ] ] ] ] ] ] ] ] ` e [ 6.5.5.5.6.5.5.5.5.} e ' ] ] ] ] ] ] ] ] ] ] I H 6.5.",
"5.5.B ! ] ] ] ] ] ] ] ] ] ] ` r G 6.5.5.6.6.5.6.#.$ ` ] ] ] ] ] ] ] ] ] ] ] ^ m 5.5.",
"5.5.1 ( ] ] ] ] ] ] ] ] ] ] ] ' h G 5.5.6.6.6.&.= _ ] ] ] ] ] ] ] ] ] ] ] ] _ b 4.5.",
"5.1.u ] ] ] ] ] ] ] ] ] ] ] ] ] ' d A 4.6.6.>.< ~ ] ] ] ( ` ] ] ] ] ] ] ] ] ' p ,.5.",
"5.>.g ] ] ] ] ] ] ] ] ] ] ] ] ] ] ' z D 4.<.6 E ] ] ' g   . E ] ] ] ] ] ] ] ] f ;.5.",
"5.-.h ] ] ] ] ] ] ] ] ] ] ] ] ] ] ] ' c B M I ] ] ] ^       w ] ] ] ] ] ] ] ] v &.5.",
"5.-.f ] ] ] ] ] ] ] ] ] ] ] ] ] ] ] ] ] P L ] ] ] ] ^       w ] ] ] ] ] ] ] ] z &.5.",
"5.;.d ] ] ] ] ] ] ] ] ] ] ] ] ] ] ] ] ] ] ] ] ] ] ] ' g   . E ] ] ] ] ] ] ] ] c *.5.",
"5.>.p ] ] ] ] ] ] ] ] ] ] ] ] ] ] ] ] ] ] ] ] ] ] ] ] ] _ ` ] ] ] ] ] ] ] ] ' g ;.5.",
"5.2.u ' ] ] ] ] ] ] ] ] ] ] ] ] ] ] ] ] ] ] ] ] ] ] ] ] ' ] ] ] ] ] ] ] ] ] ' i ,.5.",
"6.6.4 / ] ] ] ] ] ] ] ] ] ] ] ] ] ] ] ] ] ] ] ] ] ] ] ] ] ] ] ] ] ] ] ] ] ] _ 8 4.5.",
"6.5.A T ] ] ] ] ] ] ] ] ] ] ] ] ] ] ] ] ] ] ] ] ] ] ] ] ] ] ] ] ] ] ] ] ] ] E V 5.5.",
"6.5. .l ' ] ] ] ] ] ] ] ] ] ] ] ] ] ] ] ] ] ] ] ] ] ] ] ] ] ] ] ] ] ] ] ] ] J { 5.5.",
"5.5.<.7 ] ] ] ] ] ] ] ] ] ] ] ] ] ] ] ] ] ] ] ] ] ] ] ] ] ] ] ] ] ] ] ] ] ] y ;.5.5.",
"5.5.5.S ^ ] ] ] ] ] ] ] ] ] ] ] ] ] ] ] ] ] ] ] ] ] ] ] ] ] ] ] ] ] ] ] ] / Z 6.5.5.",
"5.6.5.&.r ] ] ] ] ] ] ] ] ] ] ] ] ] ] ] ] ] ] ] ] ] ] ] ] ] ] ] ] ] ] ] ] h #.6.5.5.",
"5.5.5.6.5 ! ] ] ] ] ] ] ] ] ] ] ] ] ] ] ] ] ] ] ] ] ] ] ] ] ] ] ] ] ] ] ^ : 5.5.5.5.",
"5.5.5.6.*.9 ' ] ] ] ] ] ] ] ] ] ] ] ] ] ] ] ] ] ] ] ] ] ] ] ] ] ] ] ] ] q $.5.5.5.5.",
"5.5.6.6.6.G U ' ] ] ] ] ] ] ] ] ] ] ] ] ] ] ] ] ] ] ] ] ] ] ] ] ] ] ' Y F 6.5.5.5.5.",
"5.5.6.6.6.2.2 R ] ] ] ] ] ] ] ] ] ] ] ] ] ] ] ] ] ] ] ] ] ] ] ] ] ] ! > 2.4.5.5.5.5.",
"5.5.5.5.5.5.,.< / ] ] ] ] ] ] ] ] ] ] ] ] ] ] ] ] ] ] ] ] ] ] ] ' ( = :.5.5.5.5.5.5.",
"5.5.5.5.5.5.5.=.O ~ ] ] ] ] ] ] ] ] ] ] ] ] ] ] ] ] ] ] ] ] ] ] / O &.5.5.5.5.5.5.5.",
"5.5.5.5.5.5.5.5.:.> Y ] ] ] ] ] ] ] ] ] ] ] ] ] ] ] ] ] ] ] ] Q * ;.5.5.5.5.5.5.5.5.",
"5.5.5.5.5.5.5.5.5.1.B r _ ] ] ] ] ] ] ] ] ] ] ] ] ] ] ] ] ` h 5 ,.5.5.5.5.5.5.5.5.5.",
"5.5.5.5.5.5.5.5.5.5.5.X.O K _ ' ] ] ] ] ] ] ] ] ] ] ] ` L O  .5.5.5.5.5.5.5.5.5.5.5.",
"5.5.5.5.5.5.5.5.5.5.5.5.4.{ ; e I ( ] ] ] ] ] ] ( W e ; [ 4.5.6.5.5.5.5.5.5.5.5.5.5.",
"5.5.5.5.5.5.5.5.5.5.5.5.5.5.5.=.H 5 O + # # + X 3 G &.4.6.6.6.6.5.5.5.5.5.5.5.5.5.5.",
"5.5.5.5.5.5.5.5.5.5.5.5.5.5.5.5.5.6.6.4.1.1.4.5.5.5.5.5.6.6.6.6.5.5.5.5.5.5.5.5.5.5.",
"5.5.5.5.5.5.5.5.5.5.5.5.5.5.5.5.5.5.5.5.5.5.5.5.5.5.5.5.5.5.5.5.5.5.5.5.5.5.5.5.5.5.",
"5.5.5.5.5.5.5.5.5.5.5.5.5.5.5.5.5.5.5.5.5.5.5.5.5.5.5.5.5.5.5.5.5.5.5.5.5.5.5.5.5.5."
};
